<?xml version="1.0" encoding="iso-8859-1"?>
<!-- Generator: Adobe Illustrator 19.0.0, SVG Export Plug-In . SVG Version: 6.00 Build 0)  -->
<svg version="1.1" id="Capa_1" xmlns="http://www.w3.org/2000/svg" xmlns:xlink="http://www.w3.org/1999/xlink" x="0px" y="0px"
	 viewBox="0 0 511.999 511.999" xml:space="preserve">
		<path fill="white" d="M382.167,223.205c-12.58-9.361-28.409-12.147-43.431-7.642c-22.25,6.673-45.022,10.598-67.887,11.784v-22.858
			c37.182-6.993,65.408-39.688,65.408-78.87c0-17.665-10.717-41.833-32.762-73.886C287.647,28.693,271.03,9.136,267.87,5.46
			C264.89,1.99,260.559,0,255.986,0c-4.574,0-8.905,1.99-11.875,5.45c-3.17,3.687-19.787,23.243-35.634,46.283
			c-22.046,32.053-32.762,56.221-32.762,73.886c0,39.085,28.085,71.717,65.129,78.82v22.894c-22.762-1.206-45.43-5.127-67.58-11.77
			c-15.02-4.503-30.85-1.719-43.432,7.642c-12.581,9.361-19.796,23.725-19.796,39.406v203.024c0,25.566,20.799,46.364,46.364,46.364
			h199.199c25.565,0,46.364-20.799,46.364-46.364V262.611C401.963,246.929,394.748,232.566,382.167,223.205z M205.72,125.62
			c0-17.052,23.831-54.659,50.266-87.525c26.432,32.86,50.266,70.472,50.266,87.525c0,22.545-14.92,41.669-35.402,48.022v-20.578
			c0-8.285-6.717-15.003-15.003-15.003c-8.285,0-15.003,6.717-15.003,15.003v20.488C220.504,167.111,205.72,148.061,205.72,125.62z
			 M371.958,465.636c0,9.021-7.338,16.359-16.359,16.359H156.401c-9.021,0-16.359-7.339-16.359-16.359V262.611
			c0-6.103,2.807-11.691,7.703-15.334c3.359-2.499,7.313-3.795,11.353-3.795c1.847,0,3.713,0.271,5.547,0.821
			c59.763,17.923,122.946,17.923,182.71,0c5.845-1.755,12.004-0.67,16.899,2.974c4.896,3.643,7.703,9.231,7.703,15.334V465.636z"/>
</svg>
