<svg xmlns="http://www.w3.org/2000/svg" xmlns:xlink="http://www.w3.org/1999/xlink" viewBox="0 0 471.41 260.54"><defs><style>.cls-1,.cls-6,.cls-7{fill:none;}.cls-2{clip-path:url(#clip-path);}.cls-3{fill:#00736e;}.cls-4{fill:#3686b1;}.cls-5{fill:#182750;}.cls-6{stroke:#3686b1;}.cls-6,.cls-7{stroke-linecap:round;stroke-width:4.81px;}.cls-7{stroke:#182750;}</style><clipPath id="clip-path" transform="translate(-33.59 -39.98)"><rect class="cls-1" width="538.58" height="368.5"/></clipPath></defs><title>Asset 5</title><g id="Layer_2" data-name="Layer 2"><g id="Layer_1-2" data-name="Layer 1"><g class="cls-2"><path class="cls-3" d="M393.42,241.24h.3a1.21,1.21,0,0,0-.3,0" transform="translate(-33.59 -39.98)"/><path class="cls-3" d="M402.3,223.14v.05c0,.14,0,.07,0-.05" transform="translate(-33.59 -39.98)"/><path class="cls-4" d="M96.34,273.76c0-.26.35-.53,0-.77a.54.54,0,0,0-.63,0c-.27.18-.51.41-.42.78s.24.85.32,1.29c0,.22,0,.68-.29.53-.94-.43-.53.33-.5.57M134.13,121.4a4.6,4.6,0,0,0,2.08-1.18,3.53,3.53,0,0,0-2.08,1.18M47.87,73.21c.74-.37,1.42-.08,2-.82-.78.15-1.47-.24-2,.82m44.47,48.55a7,7,0,0,0-.88-2.66,4.27,4.27,0,0,0,.88,2.66M135,136l-.12-.18c-.38.27-.78.52-1.14.81-.15.12-.41.3-.1.52a.39.39,0,0,0,.58-.1L135,136m-36.41,4.88c-.8.2-.87.73-.66,1.37.06.18.06.4.31.37s.19-.22.2-.37c0-.47.1-.94.15-1.37m26.67-67.55c-.82.41-1,1.16-.68,2.24.23-.76.44-1.46.68-2.24M120.8,191c0-.33.15-.85-.22-.92s-.4.54-.58.84,0,.45.32.49.48-.09.48-.41M93.73,250.26c.84-1.09,1.1-2,.76-2.61a10.66,10.66,0,0,0-.76,2.61M49.2,74.15c-.24,0-.72-.2-.73.24s.44.74.82.94.41-.16.47-.38c.12-.44,0-.73-.56-.8M79,193.65c-.08.53.26.95.33,1.43s.27.24.46.07c.55-.47.28-1-.79-1.5M130.18,62.73c1.29-.77,1.18-1.91,1.5-2.86-.07,1.08-1.29,1.55-1.5,2.86m-76.6,5.42a.5.5,0,0,0,.59-.45c0-.41-.34-.66-.68-.79a.49.49,0,0,0-.64.39c-.08.52.48.57.73.85m37,148.25a3,3,0,0,0-.92-2.83,12,12,0,0,0,.92,2.83m1.17,5.35a3,3,0,0,0,.4,3.08c-.14-1.09-.27-2.08-.4-3.08M186.41,98.11a2.76,2.76,0,0,0,1.07-1.42c.07-.31,0-.55-.42-.56s-.66.06-.54.43c.2.55-.13,1-.11,1.55m-33.26,7.75c-.87-.21-.86.35-1,.81-.08.23-.17.49.18.43s.9.22,1-.42c0-.32.05-.68-.16-.82M92.69,75.12c.09.29-.22.85.25.76a1.85,1.85,0,0,0,1.19-.9c.22-.5-.42-.33-.69-.45-.7-.32-.58.31-.75.59M87.44,209.73c.38.76.75,1.51,1.14,2.25.19.37.45.51.82.19s0-.47-.16-.66a1.45,1.45,0,0,1-.56-.94c-.07-.8-.48-1-1.24-.84m95.93-131.2c.52.31,1-.1,1.47-.36a.48.48,0,0,0,.22-.58c-.08-.23-.32-.15-.49-.13-.54.07-1.11.49-1.62-.12a.92.92,0,0,0-.29.2c-.43.47-.23.79.71,1m-62.55-7.08c1.4-1.19,1.4-2.67,1.51-4.11-.48,1.3-1.55,2.38-1.51,4.11m-58,15.07a15.26,15.26,0,0,0-4.16-.23c-.24,0-.57,0-.58.33s.37.32.62.34a19.83,19.83,0,0,0,4.12-.44M120.31,194c-.54,1.18-.76,1.37-2.19,1.85-.25.08-.27.34-.31.54-.24,1.05-.46,2.1-.68,3.16,0,.17-.14.43.1.49a1.46,1.46,0,0,0,.83,0c.27-.1,0-.37,0-.58-.11-.82-.53-1.66.17-2.44.48-.52,1.14-.74,1.52-1.52a5,5,0,0,0,.54-1.49M79,81.71a1.33,1.33,0,0,0,.22-1,34.94,34.94,0,0,1,.2-5.11,8.41,8.41,0,0,0,0-1.23c0-.29,0-.54-.37-.54s-.32.33-.35.56a2.41,2.41,0,0,0,0,.38c0,1.07,0,2.16.08,3.22.06.65-.5,1.1-.44,1.65A5.49,5.49,0,0,0,79,81.71m-.89-3.25c-.15-1.62,0-3.24-.16-4.85,0-.38-.14-.78-.6-.53s-1.57.38-1.22,1.09c.68,1.4,1.17,2.89,2,4.29m52.64,2.62c-.76.44-1.78.58-2.21.07s-.85-.32-1.22-.11a14.67,14.67,0,0,0-1.42,1.07c.29.11.77,0,.75.51a.33.33,0,0,1-.41.3c-.92-.16-1,.75-1.42,1.16,2-1,4.18-1.56,5.93-3M123.62,68.3l.16.12c.3-.35.53-.87.9-1,1.3-.53,1.94-1.75,2.95-2.57.21-.17.42-.37.21-.62a.47.47,0,0,0-.75.06c-.24.28-.44.61-.66.92-.11.15-.25.31-.47.23s-.22-.29-.19-.48.06-.35.09-.52c-.67,1.14-1.86.37-2.9.74a3.8,3.8,0,0,0,.49.19c1.08.22,1.15.33.77,1.38-.19.53-.4,1-.6,1.57M74.55,89c-1.2-1.56-5.77-2.82-8.91-2.39C68.71,87,71.31,89,74.55,89m53.36,58.67a80.14,80.14,0,0,1,4.71-8.34c-.54,0-1,.34-1.19-.13a.41.41,0,0,1,.09-.51.82.82,0,0,1,1.11-.15c.26.12.45.23.63-.08s.19-.42,0-.6-.32-.59-.67-.35c-1,.67-1.94,1.39-2.91,2.09.26.2.38.2.49.17a1,1,0,0,1,1.23.66c.17.44-.17.84-.57,1.1l-1.1.73c-.22.14-.5.32-.42.57.39,1.26-.56,2.11-.9,3.14-.16.49-.6.88-.48,1.7M135.72,114c.67-.33.75-.92,1-1.36a46.39,46.39,0,0,0,4-7.18c.09-.2.47-.6-.15-.67-.31,0-.68-.48-.92.26a19.14,19.14,0,0,1-1.36,3.43,45.57,45.57,0,0,0-2.65,5.52m50.16-18.52c.48.33.84.29.89-.43,0-.32.28-.39.53-.55.69-.43,0-.91-.09-1.36s-.4-.44-.7-.14c-1,1-2.28,1.79-2.67,3.35a4.66,4.66,0,0,0-.18,2.64c.12.36.24.52.58.32a1.11,1.11,0,0,1,1.32-.06c.14.1.31,0,.4-.16s.06-.32-.05-.31c-.88.12-1-.78-1.52-1.11-.18-.12-.39-.27-.31-.53s.35-.24.56-.23c.45,0,.73-.1.47-.58-.15-.28-.44-.51-.16-.83s.59,0,.93,0M79.28,87.07a29.44,29.44,0,0,0-1.41-6.72c-.18-.49.1-1.62-1.11-1.32-.1-.74-1-.85-1.22-1.56A34.65,34.65,0,0,0,74,74.14c-.09-.17-.19-.4-.41-.29s-.08.33,0,.49a9.46,9.46,0,0,0,.54,1.21,54.2,54.2,0,0,1,2.83,5.78c.86,1.87,1.63,3.79,2.34,5.74M51.74,72c.44,0,.86.37,1.22,0,.52-.55,1-1.13,1.5-1.7.14-.16.21-.4.06-.52-.76-.6-1.54-1.17-2.32-1.73-.06,0-.28.11-.4.2-.57.43-1.22.78-1.24,1.64a.59.59,0,0,1-.56.57c-.47,0-.22-.33-.23-.54s-.18-.21-.34-.17-.38.22-.32.27c.49.46.55,1.38,1.08,1.55s1,.56,1.55.43m92.63,43c0,.07.11.14.16.22a9.65,9.65,0,0,1,1.16-.58,55.22,55.22,0,0,1,6.46-1.81c1-.22,2-.64,3.06-1,.45-.14.46-.32.14-.64a4.75,4.75,0,0,1-1.19-1.92c-.06-.17-.11-.43-.36-.29s-.3.45-.14.58c.79.62,0,.61-.3.76a86.74,86.74,0,0,0-7.73,4c-.4.26-.84.44-1.26.66m8.3-.31a1.71,1.71,0,0,1-1-.48.94.94,0,0,0-1-.31,24.28,24.28,0,0,0-5.46,1.61c-.31.15-.75.41-1,.3-1-.54-1.59.31-2.3.65-.91.43-1.76,1-2.64,1.5-.66.37-1.34.72-2,1.1-.2.12-.48.3-.32.59s.44.11.67,0c2.56-1,5.12-2,7.69-2.94,2.32-.88,4.77-1.3,7.35-2M112.48,77l.24,0c.6-1.94,1.2-3.89,1.82-5.83.17-.54-.56-.73-.37-1.36a5.15,5.15,0,0,0,.1-2.25c0-.23.13-.57-.25-.58s-.32.32-.32.57c0,1.14,0,2.28,0,3.42a15.14,15.14,0,0,1-.39,2.3c0,.17-.2.45-.49.3s-.13-.3-.07-.5a21.7,21.7,0,0,0,.28-5.28,5.9,5.9,0,0,0-.26-1.49c-.06-.23-.2-.56-.52-.24a11.26,11.26,0,0,1-2.44,1.6,14.67,14.67,0,0,1,2.7,9.32m26,37.48a.57.57,0,0,0,.65-.16,44.55,44.55,0,0,0,6.35-6.08c.78-1,2-1.78,2.12-3.21-.35-.19-.76.33-1-.1-.33-.6.64-.62.57-1.15-.51-.24-.79-.06-1.13.42-1.39,2-2.85,3.83-4.27,5.75-1.1,1.48-2.18,3-3.31,4.53M125.51,81A11.5,11.5,0,0,0,129,79.65c.57-.33,1.07-.91,1.67-1,1.07-.21,1-.76.94-1.61-.08-2,.07-4,2-5.17.48-.29.2-.49,0-.72a8.81,8.81,0,0,1-1.42-2c-.09-.18-.08-.61-.47-.37a.41.41,0,0,0-.07.66c.38.47.47,1.11.79,1.59a1,1,0,0,1-.11,1.34c-.67.84-1.33,1.69-2,2.51-1.68,2-3.12,4.19-4.85,6.19m5.4-17.22a5,5,0,0,1-3,4.07.69.69,0,0,0-.32.45c-.53,2.33-1.64,4.44-2.29,6.72-.12.38-.18.83.26,1s.5-.26.62-.56a3.22,3.22,0,0,1,.25-.39q2.48-3.78,4.93-7.56a.51.51,0,0,0,.07-.36c-.35-1.08-.2-2.25-.53-3.35M76.47,87.91c-.91-2-2.07-3.8-2.85-5.83a18.45,18.45,0,0,0-2.87-4.21c-1.25-1.68-1.24-1.64-2.58,0-.51.61-.47.94.11,1.46a49.86,49.86,0,0,1,6.43,6.8,6.48,6.48,0,0,0,1.76,1.82M70.84,72.24l-.16.29c-.56,1.41.37,2.46,1,3.5,1.76,3,3.53,5.91,5.14,9,.64,1.23,1.19,2.52,1.77,3.78.08.16.13.41.37.31s.16-.32.1-.5c-.2-.7-.38-1.4-.62-2.09a51.7,51.7,0,0,0-3.72-8.4c-1-1.83-1.58-4-3.57-5.25-.15-.09-.18-.36-.29-.59m-14.94-4-.49,0c-.53,0-.2.42-.25.65s-.2.38.05.5.37-.15.55-.26a15.5,15.5,0,0,1,3-1.6l2.89-.94c.31-.1.59-.19.47-.65-.18-.73-2.17-2.81-2.9-2.82a7.57,7.57,0,0,1-2.5-.5c-.33-.13-.68-.16-.87.28a12.61,12.61,0,0,1-1.69,2.64.76.76,0,0,0,.17,1.21,7.54,7.54,0,0,1,1.56,1.47M55,85.14a15.19,15.19,0,0,0,3.4.6c2.92-.15,5.8.31,8.7.27a9.93,9.93,0,0,1,4.42.9c.18.09.41.22.61-.09A4.67,4.67,0,0,0,71,85.59a30.57,30.57,0,0,0-5.28-3.84,1.18,1.18,0,0,0-1.83.27,9.17,9.17,0,0,1-4.6,2.69,34.6,34.6,0,0,1-4.3.43M158.86,64.08c-.11-.41-.73-.32-.6-.72s.58,0,.82-.15c.88-.41,2-.31,2.71-1.1a5.12,5.12,0,0,1,1.56-1.21c.58-.27.57-.79.11-1-1.55-.81-2.8-2.24-4.71-2.29-2.21-.06-4.46-.34-6.4,1.09A3.41,3.41,0,0,0,151,61.45c0,.3,0,.69.49.65,2.23-.2,4.12.74,6,1.76a1.82,1.82,0,0,0,1.4.22m-93,16.7a4.51,4.51,0,0,0,1.56,1.27,21.54,21.54,0,0,1,4.11,3c1.1,1,2,2.3,3.44,3,.18.08.24.26.32.44A10.58,10.58,0,0,0,77,90.72a36.06,36.06,0,0,1,3.47,4.14,54.21,54.21,0,0,1,5.12,10.25c.19.5.26,1.33,1.23,1,.23-.06.3.27.41.46q.76,1.36,1.56,2.73a.3.3,0,0,0,.09-.4,67.17,67.17,0,0,0-5-11.36,54.22,54.22,0,0,0-4.53-7c-.15-.2-.22-.44-.56-.42s-.53-.35-.65-.69A37.61,37.61,0,0,0,74.57,82c-1.21-2-2.49-4-3.74-6l-.38.2c3.47,4.73,5.73,10.07,8.27,15.3a41.45,41.45,0,0,0-4.38-4.41.59.59,0,0,1-.17-.33,2.46,2.46,0,0,0-.86-1.54c-1.18-1.28-2.38-2.54-3.56-3.82-.41-.44-.75-.51-1.14,0s-1,.43-1.55,0c-.32-.24-.51-.76-1.2-.61M121.2,47c.89-.41,1-.78.29-1.29-.24-.17-.51-.44-.3-.7s.58-.14.83.09.13.29.23.41a.45.45,0,0,0,.59.16c.22-.14,0-.32-.07-.47-.33-.39-.12-.59.29-.6a.92.92,0,0,0,.82-.75c.09-.33-.32-.56-.61-.76-1.15-.82-2.54-1.15-3.72-1.87a3.06,3.06,0,0,0-1.83-.42,15.55,15.55,0,0,0-5.82,1.6,3.12,3.12,0,0,0-1.61,3.09c.06.22.06.56.38.58s.28-.27.33-.48a.34.34,0,0,1,.57-.23c.37.24.66.33,1-.06.13-.15.35-.09.51.06s.13.28,0,.31c-.56.14-.31,1-1,1.06-.24,0-.37.51-.23.83s.37.19.56.08c2.21-1.2,4.46-.91,6.73-.22a1.06,1.06,0,0,0,1.42-.65c.1-.39,0-.8.52-.67s0,.55.08.9M70.59,43c-3-.07-6,.2-8.59,2.17a2.7,2.7,0,0,0-1.19,1.43,1.37,1.37,0,0,1-.66,1c-.23.12-.35.27-.24.53a.54.54,0,0,0,.52.35,2.81,2.81,0,0,0,.65-.06,6.41,6.41,0,0,1,6.17,1.16c.15.13.34.23.51.07.37-.32.58-.09.89.14a1,1,0,0,0,1.63-.36c.17-.33.46-.41.69-.24.46.34.51,0,.6-.29s.36-.77.61-.47c.72.83.79.09,1-.32a1,1,0,0,1,.35-.43,1.63,1.63,0,0,0,.54-2.29A5.86,5.86,0,0,0,70.59,43m37.08,16c.16-.3.31-.35.47-.34.66,0,1.29.39,2-.07.27-.18.64.15.46.56-.4.94.7.74.92,1.22,0,.12.42,0,.57-.17a1.14,1.14,0,0,0,0-1.39,14.86,14.86,0,0,1-1.48-3.78,5.73,5.73,0,0,1-.19-2.53c.19-.87-.55-1.32-.71-2a3.09,3.09,0,0,0-1.73-2.1,2.45,2.45,0,0,0-2.6.74,6.05,6.05,0,0,0-.6,8.42,14,14,0,0,0,4.5,3.42c.21.1.5.45.66-.07.1-.33.2-.62-.24-.88a5.81,5.81,0,0,0-2-1M56.83,45.47a8.79,8.79,0,0,0-5.39.43A15,15,0,0,0,46.21,50c-1.14,1.45-1.75,3-1,4.83.08.23.1.63.52.53.14,0,.34-.16.36-.27.09-.38-.31-.31-.49-.45-.47-.35-.24-.8-.21-1.23,0-.25.16-.43.43-.4.47.06.44.49.54.8a.89.89,0,0,0,1.32.62,4.3,4.3,0,0,1,1.1-.31,1,1,0,0,0,1-1c0-.83.53-1,1.15-.73.86.36,1.28,0,1.63-.73a1.2,1.2,0,0,1,1.22-.84c.53,0,1.14-.2,1.16-1,0-.34.15-.51.46-.23s.39,0,.58-.07c.46-.29.75-.91,1-1.09a1.86,1.86,0,0,0,.8-1.57.5.5,0,0,1,.17-.33c.93-.51.12-.73-.2-.92a2.69,2.69,0,0,0-.92-.2m77,70.67c.54-1,1-1.81,1.39-2.66,1.23-2.94,3.12-5.59,3.86-8.75a18.91,18.91,0,0,0,1-4.14c0-.7-.18-1.46.36-2.09.16-.19,0-.35-.14-.49a7.51,7.51,0,0,1-1.7-4.73,32.29,32.29,0,0,1-.31-5.73c.13-1.45-.78-2-1.81-2.55-.5-.27-.56,0-.52.38.32,3.05.46,6.11.68,9.17a28.88,28.88,0,0,1,.12,5.58,48.11,48.11,0,0,1-.83,6.07c-.66,2.57-1,5.2-1.85,7.72a4.23,4.23,0,0,0-.23,2.22m-17.92-4-.17-.22a3.05,3.05,0,0,0-.32.13,25,25,0,0,0-7.19,6.66,36.42,36.42,0,0,0-5,10.17c-1.07,3.48-2.38,6.87-3.35,10.37a20.48,20.48,0,0,0-.7,3.25c0,.24-.1.84.39.55a1.31,1.31,0,0,0,.84-1.26,11.22,11.22,0,0,1,0-1.42c0-.24-.1-.6.26-.61s.35.36.38.65c0,.44-.1.92.25,1.39a9,9,0,0,1,.59-1.58c.27-.44.23-1.16.83-1.31.93-.25,1-1,1.14-1.71.21-1.25.53-2.47.82-3.7a6.08,6.08,0,0,0,.46-2.08,1.48,1.48,0,0,0-.28.16c-.28.18-.16.74-.65.71a.55.55,0,0,1-.48-.42c-.1-.43.3-.62.54-.83a2,2,0,0,0,.7-1.92c-.1-.56.08-.86.65-.58s.56,0,.7-.39a1.07,1.07,0,0,0-.25-1.28.56.56,0,0,1,.39-1,.88.88,0,0,0,1-.83,2.8,2.8,0,0,1,1-1.84,7.27,7.27,0,0,0,1.14-1.74l2.68-4.4c-.87.29-1.07.91-1.38,1.45-.19.32-.49.69-.92.35s-.06-.57.2-.81.25-.36.4-.52a5,5,0,0,1,2.46-1.82c.56-.13.69-.48.5-1s-.13-.82.34-.8c1.35.07,1.37-1.12,2-1.76m7.42-38.51c-1.19,1.39-2.56,2.27-3.64,3.46A44.29,44.29,0,0,0,115,82.64c-1,1.59-2.72,2.67-2.83,5-.1,2.11-1.1,4.19-1.71,6.28-.27.91-.56,1.8-.84,2.69,2.29-3.33,4.86-6.42,7.29-9.6a29,29,0,0,0,4-6.4c.72-1.76,1.12-3.62,1.94-5.34a3,3,0,0,0,.5-1.66m12,41.18c-.86,1.33-1.7,2.61-2.52,3.9-.21.33-.11.4.29.54.91.33,1.3-.17,1.65-.83.13-.23.24-.47.55-.4s.26.31.26.55-.35.48,0,.65a.83.83,0,0,0,.8-.18c1.35-1,2.85-1.65,4.24-2.52a79.32,79.32,0,0,1,12-6.39c.2-.08.61-.08.45-.45s-.39-.62-.82-.43-.85.41-1.27.63-.65.33-.86,0c-.3-.48-.54-.31-.92-.13a37.18,37.18,0,0,0-7,4.62l-3.27,2.5c0-.51.27-.64.47-.81,2.15-1.93,4.84-3.26,6.43-5.81a.82.82,0,0,1,.59-.27,1.48,1.48,0,0,0,1.37-1.13c.43-1.8,1.91-2.81,2.84-4.22.65-1,1.38-1.9,2.08-2.85a13.76,13.76,0,0,0-2.42,2.21,76.45,76.45,0,0,1-9.37,9.5c-1,.83-2,1.85-3.47,1.83-.08-.16,0-.26.09-.35,2.66-3.38,5.2-6.86,7.55-10.46,1.4-2.14,1.3-2.26-1-3.31-.56-.26-.72-.09-.85.42-.83,3.29-2.68,6.11-4.29,9-.91,1.66-2,3.2-3.05,4.79-.12.19-.19.51-.58.35,0-.31.31-.58.1-1m20.16-41.68c-.36,0-.61,0-.84.1a1.22,1.22,0,0,1-1.29-.36c-.13-.15-.2-.41,0-.52a1.46,1.46,0,0,1,1.43-.13,1.4,1.4,0,0,0,1.72-.27,1,1,0,0,1,1.28-.31c.34.19.62,0,.91-.08,1-.37,1-1.25,1-2A6.33,6.33,0,0,0,156,64c-2.41-1.3-4.81-1.76-7.23-.13-.44.29-.74.41-1.17-.06a10.1,10.1,0,0,1,.43,4.11,10.85,10.85,0,0,0,.19,3.94c.08.37.08.9.55.86a10,10,0,0,1,2,.44c-.13-.59.47-1.54,1-1.56.26,0,.54,0,.6.35s-.14.32-.35.33c-.54,0-.36.58-.62.82s.13.24.28.28c1.22.34,2.45,1.06,3.72-.3m16.19-1.58c1.51-.59,1.51-.59,1.38-1.91a.34.34,0,0,1,0-.1,4.61,4.61,0,0,0-.26-2c-.1-.24-.14-.47.2-.48.65,0,.67-.43.67-.9,0-.27-.11-.59.27-.73s.17-.38,0-.51a11.33,11.33,0,0,0-3-2.67,10.45,10.45,0,0,0-5.09-.88,5.35,5.35,0,0,0-3.16,1.11c-1.14.88-1.34,2.24-2.05,3.34a.19.19,0,0,0,0,.18c.8.63.32,1.8,1.11,2.49.37.33.47.84,1,.21a.46.46,0,0,1,.69,0c.21.23,0,.47-.12.68s-.55.44-.59.91a7.39,7.39,0,0,1,3.56.84,1.74,1.74,0,0,0,1.94,0,4.14,4.14,0,0,1,1.54-.66c.47,0,.78,0,.6.6-.05.17-.22.34.06.49.34-.15.22-.78.75-.73s.27.59.51.8M151,74.15a4.62,4.62,0,0,0-2.63.21c-1.22.37-1.37.78-.62,1.78a7.41,7.41,0,0,1,.79,8.2c-.21.45-.29.71.33,1s1.59.82,1.6,1.79c0,.66.32.82.82.92a6.21,6.21,0,0,0,4.29-.77c4-2.31,4.15-6.8,1.79-9.87-1.62-2.12-4.07-2.52-6.37-3.25M48.77,86.52c0-.45-.4-.41-.52-.66s-.24-.44.07-.65c.75-.52,1.29-.36,1.68.49a1.38,1.38,0,0,0,1,.69c.48.1.2-.49.38-.7.4-.47.53-1.46,1.52-.81a.19.19,0,0,0,.3-.1c0-.11,0-.3,0-.35a3.72,3.72,0,0,0-.65-.36,3.64,3.64,0,0,1-2.45-3.5c0-.88.08-1.77.12-2.65a2.71,2.71,0,0,0,0-.54c-.85-.11-.79-1-1.29-1.46a3.62,3.62,0,0,1-1.23-2.09c-.15-.74-.71-.71-1.11-.41A15.75,15.75,0,0,0,44,75.76,20.36,20.36,0,0,0,40.23,83a8.75,8.75,0,0,0,.33,5.49,3.46,3.46,0,0,0,3,2.36,4.07,4.07,0,0,0,2.32-.27,9.87,9.87,0,0,0,4.28-3.18c.13-.19.37-.42.05-.65s-.42-.39-.56-.14c-.55,1-1.8.64-2.49,1.35-.13.14-.37,0-.49-.13a.34.34,0,0,1,.14-.55c.15-.07.3-.14.23-.34s-.27-.1-.44-.09-.62-.13-.54-.48.37-.19.63-.14a6.82,6.82,0,0,0,2.05.33m128.29-5.13c-2-.31-3.83-.27-5.09,1.32a4.71,4.71,0,0,0-.76,5.18c.24.52.73.93.74,1.59,0,.39.05.9.75.83a.34.34,0,0,1,.26.6c-.81.69-.35,1,.3,1.26.25.11.33.38.48.52.38.36.69,1.2,1.07,1,1.24-.49,2.07.38,2.93.79a3.77,3.77,0,0,0,3.75-.12C184,93,184.6,90.71,184.6,88a2,2,0,0,0-.2-.83,10.23,10.23,0,0,0-7.34-5.82m-28.56.47a6.27,6.27,0,0,0-.81-4.59c-.35-.67-1-1.22-1.27-1.87s-1-.92-1.56-1.38c-.86-.78-1.28.14-1.9.27-.25,0-.49.14-.73.19-2.58.6-4.69-.58-6.81-1.75a1.4,1.4,0,0,0-2,.48,6.2,6.2,0,0,0-.7,4.84,12.11,12.11,0,0,0,2.19,4.06,9.48,9.48,0,0,0,10.42,3.7c2-.53,2.87-1.55,3.2-4m3.79,17.66c.29-.08.29-.39.43-.58s.4-.42.72-.24.06.43,0,.66-.38.43-.17.82a2.24,2.24,0,0,0,.4-.44c.29-.54.5-1.19,1.27-.42.25.24.52-.11.71-.3s.11-.39-.11-.54c-.4-.27-.25-.59-.1-.92s.32-.69.47-1a6.36,6.36,0,0,0-1.13-5.76,1.32,1.32,0,0,0-.22-.18c-.25-.16-.66-.13-.72-.53s.64-.16.71-.75c-.9-.1-1.75-.56-2.65-.67a3.16,3.16,0,0,1-2.07-1c-.39-.42-.79-.76-1.07.11a.49.49,0,0,1-.72.26,2,2,0,0,1-1.25-1.08c-.22-.56-1.07-.81-1.28-.32-.29.65-.75.6-1.21.59-2.81-.1-4.85,3.12-4.94,5.15-.15,3.33,1.5,5.78,4,7.72a9.29,9.29,0,0,0,3,1.58c2.19.63,4.2-.12,6.24-1a8.22,8.22,0,0,1-1.12-.68,1.69,1.69,0,0,1-.46-1.22c0-.18.17-.25.35-.23.52.07.56.53.69.91,0,0,.1.07.16.11m-77-49.59a8.71,8.71,0,0,0-2.86,1.87,5.31,5.31,0,0,0-1,2.61,3.34,3.34,0,0,0,.93,3.31A9.12,9.12,0,0,0,80,60.22,15.52,15.52,0,0,0,88.8,56a3,3,0,0,0,.58-3.89A6.21,6.21,0,0,0,86,49.48a20.76,20.76,0,0,0-6.75-.6,4.32,4.32,0,0,0-3.34,1.7c-.22.27-.4.57-.81.53-.22-.38.24-.64.12-1.18m80.14,24.65a12.8,12.8,0,0,1,3.1,3,8.35,8.35,0,0,1,1,5.4c0,.23-.16.54.17.66s.36-.16.51-.31c.4-.36.82-.42,1,.18.11.36.33.41.62.48.76.2,1.52.4,2.28.63a6.24,6.24,0,0,0,6.75-2.14,5.58,5.58,0,0,0,1.08-5.63c-.2-.77-.49-1.67-1.39-1.85-.59-.11-.86-.26-.88-.84a.73.73,0,0,0-.29-.58c-2.08-1.49-4.28-2.77-7-2.63a8.55,8.55,0,0,0-5.56,2.57c-.39.38-.53,1-1.46,1m6.66,39.78a10.43,10.43,0,0,0,5.47-.71,5.56,5.56,0,0,0,3.25-5.05c-.06-.94-.37-1.85-.49-2.8-.05-.37-.39-1.26-1-1-1.07.42-1.59-.24-1.92-.88a2.72,2.72,0,0,0-2.31-1.45c-1.48-.24-3.05-.2-4.43-1-.86-.46-1.68-1-2.55-1.45a2.15,2.15,0,0,0-3.27,1.9,4.2,4.2,0,0,1-.2.92,8.27,8.27,0,0,0,1.85,8.36,11.87,11.87,0,0,0,5.56,3.15M117.29,47.83a9.55,9.55,0,0,0-1.4-.25c-1.36-.08-3.63.74-4.11,2.19a9.27,9.27,0,0,0,0,6.13,12.28,12.28,0,0,0,5,6.48c2.09,1.37,4.29,2.41,6.87,1.76,1.15-.3,2.48-.35,3.21-1.59a5.81,5.81,0,0,0,.83-2.59,9.81,9.81,0,0,0-2.1-6.38,14.33,14.33,0,0,0-8.3-5.75M56.38,61c.18,1.22,1.15,1.31,1.87,1.39,4,.46,7.16-1.1,9.77-4a7.43,7.43,0,0,0,1.75-5,1,1,0,0,0-.13-.72,14,14,0,0,0-2.21-2.52,5.93,5.93,0,0,0-4.5-1.64,36.81,36.81,0,0,0-4.46.79,8,8,0,0,0-5.71,5c-.79,2-.79,5.24,1.93,6.78A1.27,1.27,0,0,0,56.38,61m11.56,3.3c-.37.35-.19.71-.34,1s-.07.56-.45.47-.2-.35-.21-.56A3.77,3.77,0,0,1,67.6,63a1.92,1.92,0,0,0,0-2.11c-.22-.49-.45-.58-.93-.21a10.2,10.2,0,0,1-3.57,1.91c-.67.17-.52.46-.28.86a6.71,6.71,0,0,0,1.42,1.54c.25.22.64.49.38.85s-.5-.1-.76-.19a3.43,3.43,0,0,1-.52-.23c-.17-.09-.35-.19-.51,0a.63.63,0,0,0-.11.62c.06.21.18.34.41.3a14,14,0,0,1,3.88.19c.35,0,.68-.38,1.06,0,.66.61,1.51,1,1.82,2a4.47,4.47,0,0,0,1.51,2.06c.94.78,1.64,1.87,3.06,1.84.09,0,.23.06.24.12.22.82.82.44,1.29.41a14.53,14.53,0,0,0,2.4-.84c3.74-.88,6.17-3.27,7.87-6.56a5.32,5.32,0,0,0-.79-2.15c-.27-.12-.31.11-.39.27s-.23.32-.45.26-.27-.31-.26-.53,0-.65.39-.76.44-.41.21-.57c-1-.64-1.88-1.45-3.12-1.33a17.34,17.34,0,0,1-4.13.28c-3.09-.43-5.83-1.47-7.31-4.53-.06-.11-.13-.22-.31-.18a3.32,3.32,0,0,0-.56,3.5c.26.67.46.91,1.12.47a5,5,0,0,1,1.75-.71c.21,0,.48,0,.53.26s-.2.29-.37.37q-.81.38-1.62.78c-.28.15-.49.18-.3.73a3,3,0,0,1,0,1.82c-.51,1.52-.78,3,.65,4.14.19.16.37.47.14.66s-.48-.08-.64-.24c-.55-.52-1-1.3-1.63-1.56a1.86,1.86,0,0,1-1.22-2.14m89.6,24.28a12.26,12.26,0,0,1,1.18-.65c.29-.12.67-.15.82.21s-.2.4-.42.52c-1.5.76-1.94,2.14-2.13,3.67s.47,2.84-.26,4.21a.38.38,0,0,0,.23.54c.61.21.79.75,1.07,1.24a5.38,5.38,0,0,0,1.46,1.59,9.55,9.55,0,0,0,4.46,1.7,7,7,0,0,0,7.13-3.14c.29-.44.54-.86,0-1.35a.52.52,0,0,1,0-.77c1.31-1.51.07-3.2.26-4.81a6.34,6.34,0,0,0-.61-1.65c-.1-.25-.18-.8-.69-.4-.29.23-.46,0-.46-.18,0-.94-.77-1.32-1.29-1.89a3,3,0,0,0-3.4-1,1,1,0,0,1-.64.06,4.29,4.29,0,0,0-3.3.13l-2.17.75c-.58.18-.86.53-1.26,1.19M134.13,62.21c-.24-.23-.63,0-.85-.3s-.48-.1-.43.07c.14.5-1.18.86-.13,1.41.05,0,.05.26,0,.34-.91,1.13-.26,2.15.2,3.18.12.28.44.57.2.87-.36.45-.07.82.12,1.13A7.93,7.93,0,0,0,138,72.83c.18,0,.44.06.52.18a2.46,2.46,0,0,0,2.74.8c1.85-.33,3.69-.84,4.21-3.07a.66.66,0,0,1,.41-.48,2.56,2.56,0,0,0,1.54-2.43,11.64,11.64,0,0,0-2.39-7.35,7.58,7.58,0,0,0-5.76-3.59,13.38,13.38,0,0,0-2.57.37c-2.64.26-3.83,1.1-3.78,3.33a1.3,1.3,0,0,1,.33-.17c.58-.16,1.72.26,1.57.5-.35.53.1,1.18-.36,1.68-.16.18-.07.58-.48.55a.37.37,0,0,1-.35-.27c-.2-.47.4-.37.48-.67M69.86,72.71a5.7,5.7,0,0,0-.35-3.62c-.11-.26-.17-.67-.48-.63a3.39,3.39,0,0,1-1.84-.63c-.33-.15-1,0-.49-.74.17-.24-.14-.27-.32-.29-2.93-.46-5.57.52-8.16,1.68A8.7,8.7,0,0,0,55.83,70a15.35,15.35,0,0,0-4.63,7.7,8.32,8.32,0,0,0,.18,4.4,1.57,1.57,0,0,0,.73,1,9.26,9.26,0,0,0,6.32,1.17,11.53,11.53,0,0,0,7.48-5.41c.11-.16.21-.4.36-.43,1.14-.28,1.58-1.28,2.21-2.1.33-.42.48-.79.14-1.27-.12-.17-.27-.52.06-.53,1.27,0,1-1,1.18-1.78M94,129.22c-.29-.07-.28-.21-.3-.33a34.38,34.38,0,0,0-2-6.92c-.69-1.83-1.36-3.67-2-5.53a45.51,45.51,0,0,0-5-10.74,22.51,22.51,0,0,0-8.23-7.4c-2.88-1.59-5.76-3-9.15-2.64-.51,0-1.41-.15-1.39.5s1,.62,1.57.73c.2,0,.41,0,.3-.28s.13-.52.42-.53.71,0,.67.47.16.37.35.54a2.29,2.29,0,0,0,1.81.8.89.89,0,0,1,.83.54c.19.48.49.5.91.38s.91.07.85.56.26.67.53.9a22.27,22.27,0,0,1,5.07,6.46c.25.45.37,1,1.08,1,.37,0,.47.49.35.77a1.13,1.13,0,0,0,.59,1.7c.1,0,.22.23.2.29-.32.7.25.71.63.8s.56.44.56.86,0,.64-.51.56c-.19,0-.33.06-.25.27.17.47.21,1.07.69,1.31s.48.3.27.75a.93.93,0,0,0,.4,1.16c.4.22.7-.07.83-.5a.43.43,0,0,1,.51-.32c.29,0,.3.28.3.52a5.15,5.15,0,0,0,0,.56c.06.56,0,1-.68.53-.13-.09-.28-.19-.43-.08s-.06.34,0,.52c.21.81.65,1.31,1.56,1.06.38-.11.68-.11.88.29a.58.58,0,0,1,0,.71c-.32.28-.58,0-.85-.16a.35.35,0,0,0-.44,0c-.07.33.17.58.29.85.32.67.59,1.36,1.6.77.54-.31,1.16.31,1.28,1,.21,1.12-.75.67-1.28.92.57.51.75,1.33,1.64,1.24.37,0,.76-.22.93.34s-.48.5-.73.8c.5.44.85,1,1.64.68.25-.11.58.1.42.41-.52,1,.36,1.11.84,1.24a2.48,2.48,0,0,1,1.62,1.55c.17.36.34.86.65,1a2.45,2.45,0,0,1,1.2,1.74,15,15,0,0,1,.83,3.88,13,13,0,0,0,.36,2,3.45,3.45,0,0,0,.15-1.51,3.14,3.14,0,0,1,.44-2.5,2.53,2.53,0,0,0,.08-2c-.48.28-.06.92-.62.88s-.38-.5-.52-.8a14.75,14.75,0,0,1-.77-2.14c-.08-.26-.2-.51.12-.65s.46.12.59.34a5.23,5.23,0,0,0,.77,1.4,21.26,21.26,0,0,0-.64-3.92c-.14-.78-.39-1.54-.53-2.31-.08-.41.1-.83.55-.84s.32.45.36.73c.07.57.12,1.14.22,1.69a.51.51,0,0,0,.5.39c.26,0,.31-.2.3-.39-.06-.92-.13-1.83-.22-2.75,0-.25-.25-.28-.46-.38-.71-.31-.75-1-.09-1.42a.57.57,0,0,0,.27-.64,16.71,16.71,0,0,0-.29-1.88A104.13,104.13,0,0,1,94,106.56a88.14,88.14,0,0,1-.59-10.14,95.69,95.69,0,0,1,.52-13c.11-1.1.11-2.21.17-3.31-.39.65-.28,1.41-.65,2.12a1.56,1.56,0,0,1-.4-1.37c0-.32-.09-.84-.4-.66s-1.13-.21-1.41.48c0,.14-.27.14-.43,0s-.09-.24,0-.39a2.82,2.82,0,0,1,2.79-1.45c.41.12.64,0,.61-.39s.43-1.24-.23-1.74a.27.27,0,0,0-.26,0c-.36.53-1.34,0-1.51.84,0,0-.24,0-.34,0s-.22-.25-.23-.45c0-.38.38-.73,0-1.25-.2.41-.35.71-.49,1a33.52,33.52,0,0,0-2,9.33,45.16,45.16,0,0,0,1.39,16.8,29.82,29.82,0,0,1,1.34,6.57c.08,3.13.63,6.23.57,9.37,0,.75.07,2,.67,2.13,1.46.39.91,1.47,1.26,2.25-.57.14-.58-.46-1-.47a48.77,48.77,0,0,1,.72,6.26m22.66,17.64-.28-.15c1-1.66,1.54-3.57,2.62-5.2a21.37,21.37,0,0,0,1.8-3c.64-1.54,1.37-3,2-4.58,1.48-3.46,3.05-6.9,4.82-10.22a43,43,0,0,0,4.86-12.59c.52-2.86,1-5.75,1.55-8.59a30,30,0,0,0,.55-7.37c-.19-4.45-.95-8.84-1.56-13.24-.14-1-.41-.68-.91-.43a30,30,0,0,1-4.09,2c-2.81.91-5,2.73-7.34,4.41-2.52,1.81-4.08,4.47-6,6.8a9.65,9.65,0,0,0-1,1.3c-.87,1.52-1.9,3-2.77,4.47-1,1.77-2.41,3.37-2.59,5.54a10.79,10.79,0,0,1-.77,2.54c-.68,2-1.44,3.93-2,5.94-.8,2.89-1.73,5.75-2.54,8.64a36.2,36.2,0,0,0-.67,5.22c.24,0,.27-.1.32-.22.95-2.2,1.85-4.43,2.87-6.61.39-.83,1.57-1.78.22-2.84a.28.28,0,0,1,.14-.46c.21-.07.35.06.48.21s.25.66.68.53a2,2,0,0,0,.55-1.75c-.16-.21-.34-.41-.16-.67a.52.52,0,0,1,.76-.12c.24.17.39.29.62,0a27.16,27.16,0,0,1,2-1.85c2.11-2.23,4.79-3.72,7.18-5.58.28-.21.68-.61,1-.25s0,.73-.34,1a23.72,23.72,0,0,0-2.35,2.85c-1.21,1.74-2.44,3.46-3.61,5.22-1.33,2-2.76,3.91-3.89,6-2.34,4.41-3.48,9.2-4.46,14-.62,3-1.19,5.94-3.09,8.48a8.51,8.51,0,0,0-1.85,3.16,60.69,60.69,0,0,0-1.12,12.83c0,2.78-.15,5.56-.31,8.34-.22,3.85-.6,7.7-.49,11.57a60.34,60.34,0,0,1,0,6.45c0,.36-.33.86.15,1s.57-.48.73-.8a39.32,39.32,0,0,0,2-5.29c.76-2.17,1.75-4.25,2.4-6.47a31,31,0,0,1,1.5-3.76,2,2,0,0,1,1-1.16,24.4,24.4,0,0,1-1.12,3.18,43.81,43.81,0,0,0-1.57,4.13c-.62,2.1-1.64,4-2.26,6.13-.48,1.63-1.68,3-1.77,4.76,0,.27-.43.55-.11.76s.59,0,.88-.16c.63-.3.75,0,.63.55a4.65,4.65,0,0,1-.37.86,2.94,2.94,0,0,0-.33,1.68,42.2,42.2,0,0,0,3.6-9.53L102,186c-.12.16-.28.29-.49.18s-.32-.46-.14-.56c.76-.41.26-2.21,1.85-1.68,0,0,.13-.06.14-.11.5-1.39,1-2.79,1.47-4.18a.21.21,0,0,0-.06-.18c-.6-.54-.16-.85.24-1.19a3.21,3.21,0,0,0,1.36-2.1,3.74,3.74,0,0,1,1.26-3,2.27,2.27,0,0,0,.84-1.2.6.6,0,0,1,1-.39c.33.22.59-.06.83-.27s.09-.32,0-.5-.68-.5-.2-.83.83-.57,1.28-.12c.19.2.34.27.55.09s.09-.36-.07-.55c-.45-.52.1-.78.35-1.1s.43-.39.64-.13-.12.62-.22.93c0,0,0,.1,0,.19.18-.14.36-.26.52-.41,1.06-.91,1.06-.92-.17-1.5-.18-.09-.34-.2-.35-.41s.1-.21.15-.21a5.59,5.59,0,0,1,1.59.09c.22.07.34.44.65.15.13-.13.34-.31.32-.43-.07-.4-.44-.24-.7-.3s-.47-.13-.43-.41a.31.31,0,0,1,.45-.22c.46.2.9-.24,1.39,0s.52-.25.7-.49,0-.37-.22-.48c-.51-.24-.35-.7-.13-.95a.55.55,0,0,1,1,.11c.21.5.32.34.52.05a4.35,4.35,0,0,1,.36-.55,56.32,56.32,0,0,0,7.38-10.92c.16-.28.58-.63.22-.91s-.45.25-.65.44-.54.08-.73-.13-.3-.65.06-.68c.84-.08,1.25-.74,1.87-1.11,1.17-.7,1.32-1.26.45-2.39-.28.15-.28.48-.45.7s-.3.48-.6.33-.08-.43,0-.63a3.47,3.47,0,0,1,.78-1.05c.61-.57,1.28-1.3.56-2.19-1.12-1.38-.26-2.21.72-3.06.21-.19.34-.44.57-.62a1.33,1.33,0,0,0,.7-1,1.76,1.76,0,0,0-.43.2,54.46,54.46,0,0,0-10.21,10.8c-.43.6-1.08,1.26-.13,2.06a.94.94,0,0,1-.09,1.23c-.19.2-.51,0-.63-.25-.45-.82-.79-.42-1.15.07-.17.23-.36.45-.54.66s-.32.49.09.65.59.25.39.61-.5.24-.76.08a.51.51,0,0,0-.8.17c-.27.43-.55.85-.79,1.29-.15.28-.44.66.26.67.22,0,.45.18.31.46s-.34.11-.48,0c-.36-.29-.59-.1-.78.19a3.81,3.81,0,0,0-.71,1.62s.14.13.21.12c.39-.07.72.07.57.47s-.51.13-.76,0-.34-.13-.47.08-.06.33.13.37c.34.09.49.29.37.63s-.49.24-.8.2c-.71-.09-.75.59-1,1s.26.34.48.39.41.19.31.47-.26.51-.62.46c-.88-.12-1.07-.57-.58-1.35a5.46,5.46,0,0,0,.41-.75,82.25,82.25,0,0,1,5.84-10.51c.15-.22.45-.46.23-.76s-.06-.67.1-1q1.34-2.46,2.69-4.9c1.74-3.17,3-6.58,4.6-9.79A119,119,0,0,1,130.86,125c.16-.23.57-.47.21-.79s-.62-.09-.84.24-.3.36-.55.19a.51.51,0,0,1-.24-.66,9.1,9.1,0,0,1,1.09-2.31,10.64,10.64,0,0,0,2-4.34c1.09-4,2.12-8,2.83-12.1a40.81,40.81,0,0,0,.39-12.67c0-.28.2-.83-.36-.77-.41,0-.22.52-.23.81s0,.44,0,.66a27.3,27.3,0,0,1-.14,7.28c-.73,3.49-1.17,7-1.84,10.53a45.56,45.56,0,0,1-3.3,9.84c-1.06,2.41-2.42,4.66-3.56,7-1.24,2.57-2.41,5.16-3.55,7.76a36.36,36.36,0,0,1-1.71,3.49,43.9,43.9,0,0,0-2.85,5,20.17,20.17,0,0,1-1.57,2.64m-10,106.64,0,0a2.18,2.18,0,0,0,.62-.82c1.7-3.54,3.19-7.16,4.6-10.83a131.07,131.07,0,0,0,5.05-17c.11-.47.25-.94-.24-1.3-.14-.1-.25-.32-.07-.37,1-.27.8-1.2,1-1.87.33-1.53.63-3.08.82-4.64.08-.72-.9-1.66.49-2.07,0-.88.84-1.81-.28-2.78.6.16.82,0,.87-.5.32-2.77.61-5.54.72-8.33,0-.61-.35-.74-.77-.89s-.42.13-.3.27c.72.88.07,1.85.24,2.76.07.36-.2.59-.51.71a.43.43,0,0,1-.56-.23c-.15-.31.06-.53.26-.74.34-.36.19-1.9-.23-2-.84-.13-.83-.64-.74-1.25,0-.26.09-.5-.31-.53s-.5,0-.57.35-.16.54-.22.82c-.32,1.42-.56,2.87-1,4.27s-.55,2.7-1.06,4a81.29,81.29,0,0,1-5.5,11.44c-2.23,3.87-4.66,7.62-6.76,11.55A82.13,82.13,0,0,0,97,245.09c-1.16,3.29-2.48,6.57-2.55,10.17,0,1.57,0,1.69,1.58,1.45.79-.13.92.25,1,.88a1.31,1.31,0,0,1-.61,1.12,1.71,1.71,0,0,0-.6,1.11c-.07.32,0,.93-.57.76a.69.69,0,0,1-.26-1.12c.72-.86.08-1.41-.51-2,0,1.28-.07,2.56-.1,3.85-.58-.07-.19-.72-.75-.77a38.6,38.6,0,0,0,1.16,9.75,18,18,0,0,1,.7-3.45c.67-1.89.58-3.94,1.3-5.82.45-1.16,1.18-2.16,1.67-3.28a90.51,90.51,0,0,1,4.54-9c.14-.24.2-.77.59-.52s-.05.56-.19.83c-.62,1.21-1.28,2.39-1.84,3.63-.93,2.07-2,4.1-3,6.1a10.55,10.55,0,0,0-1.1,2.58c-.45,2.16-1,4.29-1.38,6.47-.12.77,0,1.16.77,1.21.62,0,.74.37.58.91s-.29,1-.44,1.49l.21.09,1.78-3c-.66-.06-1.17.63-1.63.1-.26-.29-.78-.5-.59-1.09a1.36,1.36,0,0,1,1.22-1.13c.28,0,.56-.22.78.07s0,.48-.15.66c-.42.44,0,.66.23.93s.41.1.48-.11c.13-.37.75-.63.28-1.11-.16-.17-.55-.24-.31-.55s.56-.59.88-.34.62,0,.84-.2a5.3,5.3,0,0,0,.86-1.69c.09-.19.08-.34-.2-.4-.53-.1-1.29.54-1.13,1s-.14.79-.62.69c-.82-.18-1.55-.25-2.06.63-.18.3-.54.19-.74,0s.11-.36.24-.54c.58-.84,1.69-.73,2.42-1.32a3.18,3.18,0,0,1-.61-.49c-.16-.21-.48-.44-.26-.74s.48-.08.72,0a3.82,3.82,0,0,0,1.19.25c.62-.07.86-.25.44-.82-.32-.42-.19-.73.22-.91.77-.33.5-1,.71-1.72a6.61,6.61,0,0,0-.55.44.52.52,0,0,1-.83,0c-.34-.41.11-.57.32-.73s.67-.34,1-.56.61-.45,0-.61a.43.43,0,0,1-.35-.49.46.46,0,0,1,.47-.39.52.52,0,0,1,.6.36c.21.58,1,1.16,0,1.77,0,0,0,.18,0,.23.6.69,0,1.2-.27,1.74-.11.22-.57.41-.17.66s.45-.22.56-.44c.77-1.49,1.57-3,2.25-4.5a17.16,17.16,0,0,0,1.51-3.68m5.38-175.92a41.41,41.41,0,0,1-2,9.07c-1.28,4.11-2.12,8.34-3.19,12.51-.79,3.06-1.29,6.2-2,9.29s-1.38,6.1-1.82,9.21c-.47,3.32-1.14,6.6-1.92,9.86-.84,3.48-1.86,6.92-2.4,10.46-.05.31-.35.82.1.92s.33-.47.4-.76.08-.31.13-.46a54.76,54.76,0,0,0,2.47-11,18.47,18.47,0,0,1,.49-3c.58-2.1,1-4.26,1.66-6.33.64-1.84,1.1-3.74,1.73-5.59s1.66-3.77,1.94-5.8c.19-1.36,1-2.57.79-4-.06-.35,0-1.53,1.16-1,.2.09.26-.07.38-.16a5.28,5.28,0,0,0,1.24-2.1c.1-.2,0-.32-.14-.48-.66-.57-.67-1.19.1-1.54s1-1.22,1.93-.9c0,0,.16-.12.17-.2A5.92,5.92,0,0,1,115,93a32.18,32.18,0,0,1,4.17-4.62,6.36,6.36,0,0,0,1.61-2.46,1.58,1.58,0,0,1,1.65-.91c.86.5,1.19-.2,1.72-.44.19-.08.33-.31.12-.45-.63-.42-.23-.6.14-.84a2.37,2.37,0,0,0,.89-1h-.55c-.33,0-.71.51-1,0s.21-.72.47-.93a18.31,18.31,0,0,0,3.39-3.7,41.5,41.5,0,0,0,3.64-5.14,10.5,10.5,0,0,0-1.93,1.88c-.18.18-.33.59-.65.4s-.09-.5,0-.77.52-.46.13-.7-.5.18-.68.38c-.64.7-.93,1.65-1.63,2.33a4.34,4.34,0,0,0-1.32,2.77c0,.3-.05.74-.48.66s-.19-.5-.2-.79c0-.66.49-1.38-.2-2.07a6.41,6.41,0,0,1-1.67,3.39,4.47,4.47,0,0,0-1.47,1.94,15.77,15.77,0,0,1-2.68,4.47c-1.58,2-3.2,4-4.71,6.07a54.35,54.35,0,0,0-4.58,6.74c-.2.39-.47,1-1,.77s-.15-.89,0-1.26c.79-2.17,1.52-4.36,2.15-6.58.31-1,1-2.11.73-3.19a3.37,3.37,0,0,1,.68-2.74c.91-1.28,1.76-2.61,2.7-3.88A48.61,48.61,0,0,1,120,75.9c1.94-1.83,4.14-3.47,4.9-6.24a.39.39,0,0,1,.28-.2c.25,0,.59,0,.35-.41s-.4-.63-.83-.42a1.47,1.47,0,0,0-.49.44c-1.48,1.85-3.29,3.38-4.78,5.23s-3,3.29-4.54,4.91c-.38.4-.76,1.13-1.36.77s-.09-1.1.16-1.52a38.87,38.87,0,0,0,1.8-3.74,50.79,50.79,0,0,0,2.9-8c.12-.42.17-1.26.83-1s.12.91,0,1.32a68.16,68.16,0,0,1-3.52,8.91,4.3,4.3,0,0,0-.55,1.72c.53-.48,1-.85,1.35-1.24.13-.12.46-.3.11-.5-.68-.4-.18-.66.1-.92s.88-.57.8-1c-.14-.75.33-1,.78-1.34a4.66,4.66,0,0,0,1-.92,15.78,15.78,0,0,0,2.64-5.93c.14-.5-.12-.65-.58-.72A11.85,11.85,0,0,1,117,63.51c-.78-.48-1.35.32-2.06.15-.09,0-.1.27-.08.42a47.33,47.33,0,0,1,.2,5.19,10.79,10.79,0,0,0,.84-3c0-.31,0-.71.47-.62s.37.47.3.77c-.17.7-.34,1.41-.58,2.1a56.17,56.17,0,0,0-2.7,8.39c-.26,1.34-.31,1.32-1.37.66a13.33,13.33,0,0,0-1.28-6.81c-.1-.2-.12-.62-.44-.49s-.14.48,0,.74.33.6-.07.71c-.59.17-.37.43-.22.76A13.42,13.42,0,0,1,111.4,77c0,.4.17.68.65.57M46.5,67.82l0,0c.39,0,.77,0,.42-.53-.14-.23-.34-.43-.07-.65s.55-.08.78.22.88.49,1,.22c.15-.51.76-.65.76-1.28s.63-.78,1-1,.36.31.44.57.33.25.54.2.24-.26.18-.46a.91.91,0,0,1,.16-1.05,1.32,1.32,0,0,0,.56-1.4c0-.24-.09-.83.43-.92s.82.24,1,.71c0,.14,0,.31.25.36.33-.67.22-.86-2.37-4.1-.26.17.18.66-.26.68s-.42-.34-.53-.6c-.21-.53-.44-1-.6-1.59-.69-2.39-1.79-2.47-3.34-1.3-.41.31-1,.58-.43,1.38a.91.91,0,0,0-1.46.06,10.11,10.11,0,0,0-3.37,8.32,3.61,3.61,0,0,0,3.27,3.61,7.53,7.53,0,0,0,7.47-2.42c.15-.16.48-.36.1-.58s-.5-.41-.84.1a3,3,0,0,1-2.28,1.46,5.71,5.71,0,0,0-2.15.57c-.2.09-.35.25-.58.08s-.07-.44,0-.67M93.63,273.38c0-.15,0-.41,0-.44.94-.5.36-1.22.25-1.83-.89-5.13-1.64-10.26-.59-15.46a12.06,12.06,0,0,0-.35-4.89c-.6-2.84-.41-5.74-.53-8.61-.16-3.82-.15-7.65-.28-11.47a23,23,0,0,0-.83-4.85,36.31,36.31,0,0,1-.77-4.55,26.93,26.93,0,0,0-1.85-7c-1.11-2.65-2.9-4.9-4.26-7.4-1.58-2.91-3.57-5.57-4.87-8.67a45.33,45.33,0,0,1-2.68-9.46c-.36-1.93-.91-3.83-1.13-5.77a32.74,32.74,0,0,1,0-8.79c.57-3.72,1.33-7.41,1.54-11.18,0-.45-.07-.72-.52-.85a.48.48,0,0,1-.38-.5c0-.32.34-.25.53-.21.49.11.58-.18.69-.55.38-1.29.31-2.64.65-3.94.1-.39-.08-.59-.53-.47a.37.37,0,0,1-.48-.33c0-.3.26-.37.47-.33.59.1.59-.26.62-.68.08-.91.2-1.82.29-2.74,0-.31.1-.64-.16-.9s-1-.74.23-.76c.36,0,.33-.69,0-1.07-.09-.11-.37-.24-.19-.33,1.07-.56.71-1.64.82-2.45.24-1.91.21-3.85.35-5.77a66.7,66.7,0,0,0-.27-7.48c0-1.1-.08-2.19-.12-3.37a.78.78,0,0,1,.52.81c0,1.5.65,2.89.78,4.35.45,5.06,1.47,10,2.15,15.07a84.88,84.88,0,0,0,1.79,8.64c.78,3.23,1.14,6.53,1.76,9.79.55,2.82,1.09,5.65,1.67,8.46.5,2.41,1.41,4.72,2,7.13a52.08,52.08,0,0,1,1.17,10.33c.06,2.82.36,5.6.69,8.4.29,2.44.72,4.85,1,7.29,0,.45.17.89.26,1.33l.29,0c.11-1.33.33-2.66.33-4,0-3.58,0-7.16.33-10.72s.47-7.4.81-11.09.3-7.39.41-11.09c.12-4.11.18-8.22.07-12.33-.09-3.51,0-7,0-10.52a69.29,69.29,0,0,0-1.67-14.59c-.61-2.91-1.59-5.73-2-8.69A1.23,1.23,0,0,0,91,128c-3.94-2.66-6.2-6.6-8.17-10.76-1.22-2.58-2.11-5.29-3.19-7.92a23.41,23.41,0,0,0-4.44-6.94,1.65,1.65,0,0,0-1.59-.68c-.68.06.09-.91-.62-1.39-2.64-1.79-5.39-3-8.67-2.78a2.35,2.35,0,0,1-1.91-.36c-.3-.28-.45-.54,0-.7,1.63-.57,3.15-1.51,5-1.48.83,0,1.65,0,2.48.06.41,0,.81.12,1-.44a.46.46,0,0,1,.65-.23c.25.11,0,.31,0,.48,0,.43.73.74,1.29.52A4,4,0,0,1,73.6,95c.28-.05.61.18.41.42-.62.74.12.79.46,1,1.77.84,3.45,1.87,5.14,2.86a10.93,10.93,0,0,1,3.82,3.49,1.33,1.33,0,0,0,.31.24c.07-.76-3.13-7.26-4.07-8.32-3.41-3.84-5-5-6.7-5.07.59.63,1.47.82,1.87,1.51a.29.29,0,0,1-.44.08c-1.15-.67-2.34-1.28-3.44-2A12,12,0,0,0,63,87.26c-2.74.23-5.49.37-8.25.4A5.23,5.23,0,0,1,52.11,87c-.52-.3-.75-.3-1.17.27-1.82,2.51-4.15,4.28-7.43,4.26A4,4,0,0,1,39.85,89a8.19,8.19,0,0,1-.56-5.92c.23-.78.2-.79-.77-.88,1.95-.76,1.74-2.78,3-4.16a2.6,2.6,0,0,0-1.8,1.76,2,2,0,0,1-2.64.79.92.92,0,0,0-.71-.23c-.09.28.17.37.28.53.28.39,0,.61-.24.79s-.4-.1-.59-.25c-.73-.59,0-1.31-.19-2,0-.22.46,0,.7.09.42.24.56.09.54-.37,0-.85.21-1,1-.73a3.21,3.21,0,0,1,.77.37c.26.2.34.09.49-.13a7.35,7.35,0,0,1,1.44-1.4c.12-.1.31-.27.4-.24,1.15.48,1.27-.66,1.82-1.14A6.59,6.59,0,0,0,44.55,73a3.21,3.21,0,0,0-.34-2.61c.33-.19.42.09.57.21s.31.28.5.12a.5.5,0,0,0,.12-.34c0-.23-.23-.28-.42-.3a5.59,5.59,0,0,1-3-1.41.57.57,0,0,0-.85,0c-1.55,1.61-3.69,2.67-4.69,4.78s-2.34,4.26-2.12,6.8c.15,1.67,1.23,2.37,3.13,2.19.27,0,.53-.25,1.05.1a4.29,4.29,0,0,1-2.34.35,2.89,2.89,0,0,1-2.52-3.17,9.36,9.36,0,0,1,.81-3.29,14.71,14.71,0,0,1,2.29-4.54,6,6,0,0,1,1.44-1.36,16.08,16.08,0,0,0,2.68-2.4c.31-.27.25-.52.15-.84-1.13-3.61.23-6.65,2.23-9.52a6.51,6.51,0,0,1,1.37-1.17.82.82,0,0,0,.22-1.16,4.86,4.86,0,0,1,.75-5.65,15.47,15.47,0,0,1,6.13-4.64,12,12,0,0,1,6.09-.24,2.36,2.36,0,0,1,1.38.94c.33.37.58.39.91,0a8.71,8.71,0,0,1,5.37-3.1,14,14,0,0,1,5.46-.36A6.15,6.15,0,0,1,74,44.18c1.3,1.24,1,2.5.68,3.9-.1.39-.42,1-.12,1.14a1.8,1.8,0,0,0,1.63.05c3.5-1.9,7.12-1.57,10.67-.35a6.29,6.29,0,0,1,3.76,3.94,4,4,0,0,1-1.34,3.94,13.66,13.66,0,0,1-3,2.05c-.48.2-.5.41-.21.86a10.14,10.14,0,0,1,1.25,3.91c.28,1.78-.74,3.11-1.65,4.42A13.09,13.09,0,0,1,81,72c-.38.2-.58.3-.3.74a1.12,1.12,0,0,1,.06.93c-.8,2.53-.52,5.22-1,7.76-.58,3,.52,5.64.57,8.47A3.22,3.22,0,0,0,81,91.51a70.64,70.64,0,0,1,6.87,12.76,73.8,73.8,0,0,1,3.28,9.81c.06.2.15.39.22.6.36-.19.2-.43.16-.61-.37-2-.16-4-.55-6s-1-3.67-1.37-5.53c-.82-3.84-1.89-7.63-1.52-11.63.06-.65-.11-1.32,0-2,.09-.47.08-.83-.6-.66-.27.07-.55-.07-.77-.49.83,0,1.63.06,1.5-1.13-.08-.73.5-1.56-.36-2.17,1.08-.6,1.08-1.07,0-1.88.15-.47.89,0,1-.63s-.26-.78-.64-1A5.88,5.88,0,0,0,90,77.78c-.09-.55-.87-.37-1-1,1.64.64,1.68-.72,2.14-1.59.65-1.23,1.31-2.45,2-3.67a2.7,2.7,0,0,1,.48-.59.38.38,0,0,1,.51-.11c.21.14.14.34,0,.49-.38.42-.13.5.25.69.8.38.72,1.26.73,1.93.06,3.82-.27,7.63-.56,11.44a79.44,79.44,0,0,0-.43,9.75c.18,3.88,0,7.78.63,11.62.31,2.09.7,4.17,1,6.25.49,3,1.53,5.78,1.84,8.79.19,2,.37,3.9.46,5.85.07,1.66-.28,3.33-.35,5s-.51,3.19-.2,4.8c.08.41-.22.72-.39,1.05a1,1,0,0,1-1,.62c-.41,0-.32-.57-.35-.89a23,23,0,0,0-.92-4.1,2.47,2.47,0,0,0-.13.42c.13,2.55,0,5.12.31,7.67.25,2,.76,3.92.91,5.88a60.47,60.47,0,0,1,.2,8.62c-.19,2.72,0,5.45-.06,8.17,0,4.07-.13,8.14-.06,12.2.09,5.5-.61,10.94-.9,16.41-.18,3.47-.44,6.94-.57,10.42a73.9,73.9,0,0,1-.72,9.63,2.68,2.68,0,0,0,.14,1.41c.53,1.19-.32,2.28-.17,3.43a.31.31,0,0,1-.31.39.38.38,0,0,1-.42-.4c0-.38,0-.76,0-1.14a.92.92,0,0,0-.55-1,.82.82,0,0,1-.33-1.28c.61-.54.41-1.11.28-1.63-.82-3.2-1.18-6.48-1.69-9.73,0-.18.07-.53-.3-.41s-.61.23-.69-.15,0-.77.36-.91.42-.56.38-.93c-.36-4.17-.16-8.37-.73-12.52A50.5,50.5,0,0,0,88,180.75c-.66-2.16-1-4.37-1.49-6.57C85.19,168,84.61,161.6,83,155.43c-.55-2.14-.75-4.36-1.1-6.55-.42-2.71-.83-5.42-1.25-8.12-.32,0-.33.2-.33.31a15.85,15.85,0,0,1-.18,4c-.08.3.15.55.56.63s.46.5.1.65c-.92.39-.82,1.25-.9,1.93-.47,4-.77,8-1.31,11.94-.28,2-.5,4.06-.81,6.09a1.08,1.08,0,0,0,.14.78,1.73,1.73,0,0,0,.75-1.06c.06-.19.07-.53.38-.4s.1.38,0,.58c-.1.4-.21.79-.32,1.19,0,.21-.07.53-.37.43-.84-.27-.77.37-.87.83a62.89,62.89,0,0,0-1.16,8.08,15.66,15.66,0,0,0,.05,2.37c0,.11-.08.42.14.32s.47-.16.56.19.15.83-.13,1c-.85.46-.64,1.31-.52,1.85.31,1.42.44,2.86.84,4.26.07.25.1.55.46.45s.77-.15.69.39-.56.15-.89.22c.23,1.27.45,2.52.69,3.78.1.51.76.53.92,1.11.09.33.55.68.75,1.11s.46.49.83.11a.41.41,0,0,1,.66,0c.14.24,0,.43-.24.54s-.45.29-.34.67c.17.6.23,1.09-.62,1.38-.57.2,0,.73.11,1.26.3-.44.51-.77.75-1.07a.49.49,0,0,1,.75-.1c.31.25.18.52-.12.68s-.44.71-.86.86a.27.27,0,0,0-.12.46,5.88,5.88,0,0,1,.75,1.53c.35.77.64,1.46,1.68.89a.47.47,0,0,1,.65.24c.08.19-.07.27-.22.35-1,.52-1,.57-.3,1.46l.2.2,0,0c.23.57.32,1.24,1,1.49.3.11.11.35.15.52.12.52.15,1.21,1,1.08.32,0,.51,0,.35.41a1.67,1.67,0,0,0,1.12,2.2,1.06,1.06,0,0,1,.45.1c.26.2.49.65.85.27s0-.65-.16-1c-.66-1.68-1.86-3.06-2.63-4.68-.65-1.38-1-2.86-1.53-4.28a3,3,0,0,1,0-.86,3.76,3.76,0,0,1,1,2.19c.63,2.15,1.92,4,2.84,6a47.58,47.58,0,0,1,3.22,7.83,41,41,0,0,1,.94,4.12c.06.35,0,.88.66.41.27-.2.42.13.44.32.06.63.62,1.38-.41,1.78-.25.09-.21.37-.18.58a22.61,22.61,0,0,0,.47,3.47,1.57,1.57,0,0,1-.33,1.91c-.35.32-.11.85-.06,1.28a60.1,60.1,0,0,1,.3,9c0,2,.17,4.09.26,6.15,0,1.19.08,2.38.13,3.79a2.17,2.17,0,0,0,.42-1.5c.07-1.06.63-2,.39-3.16a.48.48,0,0,1,.47-.59c.49,0,.43.4.41.71,0,.47-.43.94,0,1.49a2.73,2.73,0,0,0,.56-2.21,29.78,29.78,0,0,0,0-3.66c-.07-.42,0-.82-.63-.75a.59.59,0,0,1-.59-.62c0-.35.39-.31.6-.25.74.22.6-.28.59-.68,0-2.08-.16-4.15-.18-6.23,0-3.64-.05-7.27.25-10.91.2-2.39.28-4.79.54-7.17.36-3.28.48-6.56.54-9.85,0-2.12,1.16-3.92,1.87-5.84.15-.4.43-.74-.09-1-.35-.21-.22-.53-.1-.75.36-.63,0-1.35.31-2,.16-.3-.1-.48-.31-.61-.42-.28-1.08-.3-1-1.05,0,0-.06-.1-.1-.12-.76-.25-.78-.25-.73-1,.19-3.54,0-7.08,0-10.62,0-1.39.14-2.78.23-4.17.18-2.77.35-5.55.55-8.32.33-4.48.17-9,.68-13.46.16-1.41.54-2.79.82-4.19a4.32,4.32,0,0,0,.12-.94c0-.46-.42-.4-.7-.46s-.41.19-.44.46.22.75-.31,1.18c-.06-1.18-.07-2.25-.18-3.31a26,26,0,0,0-.53-4.12,1.27,1.27,0,0,1,.5-1.44,1.13,1.13,0,0,0,.54-1.08c.08-3.26,1.13-6.33,1.86-9.46,1-4.37,2-8.74,2.65-13.2a54.75,54.75,0,0,1,1.81-8.25,18.93,18.93,0,0,0,.59-3,48.64,48.64,0,0,1,1.18-4.76c.28-1.13.41-2.3.64-3.44.88-4.37,2-8.67,3.35-12.94a17.44,17.44,0,0,0,.89-4.72,14.13,14.13,0,0,0-3-9c-.23-.3-.12-.6-.21-.89-.22-.72-.48-1.09-1.41-.87-2.67.61-5.36,1-8-.16a13,13,0,0,1-3.12-1.79A4.87,4.87,0,0,1,94.12,61c.41-.75.85-1.48,1.26-2.23,1.1-2.06,4.6-2.84,6.28-1.79-.23.4-.6.26-.91.22-3.69-.46-5.62,2.54-6.2,5.39C94.16,64.5,95.36,66,97,67a9,9,0,0,0,6.2,1.26A36.49,36.49,0,0,0,110,66.73a5,5,0,0,0,2.25-1.7c-.19-.22-.28-.13-.4-.07a1.59,1.59,0,0,1-1.5-.2c-.36-.2.05-.67.13-1a1.34,1.34,0,0,0-.76-1.64c-.85-.38-1.55-1.14-2.4-1.31-1.16-.22-1.59-1.14-2.32-1.78a8.12,8.12,0,0,1-1.39-1.42,1.56,1.56,0,0,0-.82-.62c-.38-.11-1.24-.2-.17-.74.32-.16.1-.51,0-.77a7.25,7.25,0,0,1,.2-4.49c.92-2.38,3.62-4.28,6.43-3a.47.47,0,0,0,.51,0c-.41-1.1-.15-2.28-.27-3.43s.67-1.73,1.35-2.38a4.21,4.21,0,0,1,1.82-1c1.28-.36,2.56-.74,3.86-1a5.36,5.36,0,0,1,3.51.55c1.08.53,2.13,1.11,3.21,1.65A3.45,3.45,0,0,1,125,45.37c.07.64.25.9.9.81a11.92,11.92,0,0,1,6.27,1.21,6.93,6.93,0,0,1,3.69,5.79,4.56,4.56,0,0,1-.56,1.8.37.37,0,0,1-.47.21c-.23-.08-.24-.27-.2-.47s.06-.19.08-.28a5.75,5.75,0,0,0-3.25-6.51,10.11,10.11,0,0,0-5.36-1c-.35,0-.62.05-.65.49s-.34.52-.6.7c-.89.63-.94.88-.33,1.73.11.15.35.34.18.47-.75.55-.09.86.2,1.15a14.76,14.76,0,0,0,2.38,2.56,2.07,2.07,0,0,1,.53,1.34c.06,1.27.82,2.3,1,3.5,0,.26.43.88.79.05.17-.4.53-.23.66,0,.34.66.58.38.83,0s.42-.68,1-.49c.46.15.51-.6.86-.81-.12-.2-.24-.16-.35-.1-.34.16-.73.47-1,0s.33-.45.58-.63a3.39,3.39,0,0,0,.76-.7,1,1,0,0,1,1.32-.44c.5.28-.22.69-.07,1.17,1.75-.87,3.62-.72,5.48-.65a5.87,5.87,0,0,1,4.34,2c.29.33.63.63.91,1s.39.29.69,0A3.25,3.25,0,0,1,149,57.91a1.28,1.28,0,0,1,1,1.11c-1.71-1.19-2.89-.37-4,.6-.24.2-.41.4-.18.72A11,11,0,0,1,147,62.21c.16.36.39.19.61,0a2.67,2.67,0,0,1,1.6-.67c.61,0,.43-.77.42-1.25s-.32-.59-.71-.47c-.2.06-.37.29-.58,0a.41.41,0,0,1,0-.45c.12-.25.34-.48.6-.35,1.25.62,1.89.12,2.67-.94a4,4,0,0,1,2.75-1.36,21.59,21.59,0,0,1,5.5.17,7.79,7.79,0,0,1,4.45,2.72,2,2,0,0,0,1.91.71,11.08,11.08,0,0,1,5.09,1,9.83,9.83,0,0,1,4.95,6,2,2,0,0,1,.06.85c-.1.9.2,1.32,1.19,1.26,3.73-.21,5.93,2.06,7.75,4.9.54.84,1.24,1.62.95,2.77a10.74,10.74,0,0,1-2,3.55c-.12.17-.35.1-.53.08.15-.38.31-.76.46-1.13a7.1,7.1,0,0,1-2.06,1,.65.65,0,0,1-.69-.19c-.21-.25,0-.46.12-.66s.34-.18.3-.51a3.38,3.38,0,0,1,.6-2.61c.55-.75.71-1.56-.25-2.21a1.21,1.21,0,0,1-.39-.63c-.11-.35-.34-.86.08-1s.72.31.76.75a2.5,2.5,0,0,0,.5,1.21.61.61,0,0,0,.77.18c.31-.1.1-.37.09-.58,0-1-.91-1.38-1.45-2-2-2.35-4.6-2.49-7.29-1.75-.71.2-2.14.33-1.68,1.87,0,.15-.16.25-.35.19-.95-.26-.94.72-1.35,1.12a.94.94,0,0,0,.14,1.36,2.55,2.55,0,0,1,.81,1.78c0,1.14.76,1.86,1.34,2.7a1.68,1.68,0,0,0,1.61.73,7.09,7.09,0,0,1,3.23.65c1.32.55,2.67.88,3.86-.33.3-.31.58-.1.87,0,.23,1.08-.7,1.07-1.29,1.26s-.81.29-.21.84a10.87,10.87,0,0,1,3,4.09,3.74,3.74,0,0,1,.2,2.49c-.12.45-.38,1-.06,1.46.15.25,0,.4-.21.55a3.15,3.15,0,0,0-.71,1.13c.68-.07.68-.08.88-.75.12-.37.43-.43.76-.42a2.05,2.05,0,0,1,1.54,1,4.41,4.41,0,0,1,.17,4.93,21.63,21.63,0,0,1-1.45,2c-.34.43-.61.9-1.38.77-.37-.07-.89.4-1,1a11.4,11.4,0,0,1-.34,1.76c-.23.7-1,1-1.47,1.51-.28.27-.49-.26-.37-.48a6,6,0,0,0,.3-1.66c.06-.28.1-.62.42-.69.86-.17.55-.66.55-1.26a7.5,7.5,0,0,0-1.3-4.28c-.26-.39.19-.54.18-1a6.13,6.13,0,0,1-3.71.44A7.56,7.56,0,0,0,174,96a3.21,3.21,0,0,0-1.91,1.87,6.77,6.77,0,0,1-1.17,1.84c-1.84,2.32-1.41,3.15-.21,5.14,1.68,2.78,4.46,3.58,7.48,3.27,1.87-.19,3.17-1.59,4.28-3.06.14-.18.11-.51.47-.53.32.39,0,.72-.19,1-1.56,1.94-3.26,3.39-6.06,3.5-2,.07-4.2.35-5.54,2.47-.41.66-1.23,1-.91,2a3.38,3.38,0,0,0,2.36,2.15c.45.15.94.17,1.38.35,3.21,1.32,5.43-.75,6.91-3.13a3.71,3.71,0,0,0,0-3.14c-.07-.23-.46-.52,0-.69a.6.6,0,0,1,.81.46c.23,1.48.45,3-.54,4.3a9.52,9.52,0,0,1-3.47,2.89,1.91,1.91,0,0,1-.73.21,9.4,9.4,0,0,1-6.69-1.86,1.75,1.75,0,0,1-.63-.93c-.21-.86-.66-.74-1.22-.36a8.5,8.5,0,0,1-7.63.93,7.76,7.76,0,0,0-4.5-.09c-2.94.78-6,1.24-8.87,2.07-2.35.67-4.55,1.77-6.88,2.47a31.51,31.51,0,0,0-6.81,3.49c-.46.27-.65.77-1,1.17a72.19,72.19,0,0,0-4.22,6.31c-1.26,2-2.39,4.15-3.49,6.28-1.47,2.82-2.6,5.78-4,8.61-.72,1.43-1.64,2.76-2.47,4.14a1.69,1.69,0,0,0-.29,1c.67-.8,1.4-1.57,2-2.42a40.12,40.12,0,0,1,3.79-4.24c.44-.47.86-.87.38-1.55-.1-.13-.22-.36,0-.48a.48.48,0,0,1,.53.1c.27.22.55.56.87.15s1.2-.6,1-1.42c-.09-.35.05-.58.32-.53,1.15.24,1.78-.67,2.48-1.21,1.82-1.42,3.88-2.5,5.64-4,.83-.69,1.7-1.31,2.55-2,.24-.19.5-.51.79-.14s0,.59-.19.85c-.88,1-1.75,2.08-2.65,3.11a36.19,36.19,0,0,0-3,4.24,75.32,75.32,0,0,0-4.75,9,75.06,75.06,0,0,1-5.24,9.11c-1.53,2.35-3.47,4.33-5.2,6.5-.69.87-1.44,1.68-2.16,2.52a44.49,44.49,0,0,1-4.13,3.63,21.15,21.15,0,0,0-4.5,5.71,47.56,47.56,0,0,0-1.93,5.13c-.67,1.71-1.31,3.43-1.84,5.18-.61,2-1.7,3.88-2.4,5.84s-1.51,4-2.31,5.89a12,12,0,0,0-.5,3.36,22,22,0,0,0-.48,4.31,41.72,41.72,0,0,1-.49,7.08c-.29,3.06-.47,6.13-.61,9.18-.17,3.91.13,7.84.25,11.77.08,2.53,0,5.05-.16,7.57,0,.29-.21.71.22.8s.4-.34.52-.59c1.14-2.26,2.11-4.59,3.08-6.93a33,33,0,0,1,2.68-4.78c1.31-2,2.14-4.37,3.59-6.34,1-1.43,1.74-3.07,2.72-4.55a1.45,1.45,0,0,0,0-1.85c-.12-.14-.39-.35-.19-.56a.56.56,0,0,1,.71,0c.27.21.54.43.75,0s.8-.88.35-1.49c-.15-.2-.45-.34-.34-.61s.47-.25.74-.16.33,0,.41-.14c.45-1,1.17-1.94,1-3.14,0-.09,0-.23,0-.26,1.56-.95,1.38-2.71,1.75-4.13.91-3.52,1.73-7.07,2.61-10.6a34,34,0,0,1,3.37-8.41,14.21,14.21,0,0,1,1.84-2.86c.19-.2.37-.38.64-.28s.26.42.23.66a3,3,0,0,1-.22.72,33.07,33.07,0,0,0-1.94,9.85c-.17,2.41-.05,4.86,0,7.29a44.77,44.77,0,0,1-.81,8q-1,6.34-2.33,12.67c-.81,4-2,7.86-3.14,11.73A120.07,120.07,0,0,1,108,252.94q-2.92,6.19-6,12.31c-.74,1.47-1.93,2.66-2.74,4.1a3.66,3.66,0,0,0-.69,2.69,18.88,18.88,0,0,1-.06,4.44" transform="translate(-33.59 -39.98)"/><path class="cls-4" d="M100.29,62.56c.13-.29.12-.63.39-.86a.62.62,0,0,1,.69-.17.41.41,0,0,1,.22.63c-.27.45,0,.56.35.61.54.06.82.27.67.86,0,.19,0,.41.21.45a.6.6,0,0,0,.44-.08c.21-.18.08-.38,0-.59s-.51-.44-.19-.71.61-.06.84.2.61.63,1.06.38a1.24,1.24,0,0,0,.52-1.07c0-.31-.24-.74.34-.8s1-.12,1.29.35,0,.69-.29,1.06c-1.16,1.56-2.85,1.84-4.58,2a1.76,1.76,0,0,1-1.92-2.27" transform="translate(-33.59 -39.98)"/><path class="cls-4" d="M85.08,196.59c.69.76.69,1.79,1,2.69.64,1.81,1.5,3.52,2.24,5.28a61.27,61.27,0,0,1,2.6,5.79c.06.22.31.52-.11.61s-.34-.26-.36-.46a2.84,2.84,0,0,0-.66-1.75c-2-2.16-2.15-5.23-3.65-7.66a9.29,9.29,0,0,1-.77-3c-.08-.5-.64-.92-.28-1.5Z" transform="translate(-33.59 -39.98)"/><path class="cls-4" d="M81.46,164a21.79,21.79,0,0,1,.06,2.91,59.88,59.88,0,0,0-.22,8.88c0,1.33,0,2.66.13,4,.07.68-.48.49-.69.59-.41.2-.36-.28-.38-.52-.06-.72-.54-1.55.48-2.05.09,0,0-.41,0-.63.11-3.65-.07-7.32.24-11,.06-.72-.33-1.47.34-2.19" transform="translate(-33.59 -39.98)"/><path class="cls-4" d="M177.84,99.44c0,.19,0,.41,0,.64s-.18.51.13.55.37-.26.3-.53.07-.42.32-.47a.65.65,0,0,1,.69.17.48.48,0,0,1,0,.62c-.3.4-.5.72.26.77.2,0,.3.21.27.43s-.15.18-.28.21a2.93,2.93,0,0,1-3.23-2.18,1.11,1.11,0,0,1,1.27-1.2c.6.16.48.56.26,1" transform="translate(-33.59 -39.98)"/><path class="cls-4" d="M99.05,65.3a6.86,6.86,0,0,1,2.42,1c.28.17.56.4.4.75s-.47.24-.75.23c-.84,0-1.57-.48-2.42-.58-.49,0-.89-.88-1.1-1.49-.1-.28.27-.31.46-.19a2.73,2.73,0,0,0,1,.28" transform="translate(-33.59 -39.98)"/><path class="cls-4" d="M131.11,56.33c-.25-.17-.49-.07-.72.15a.69.69,0,0,1-.93.15c-.16-.11-.37-.33-.25-.44.28-.26.56-.72.95-.63.6.13.86-.17,1.18-.54s.62-.49.75.07c.07.32.79.36.37.79s-.72.75-1.35.45" transform="translate(-33.59 -39.98)"/><path class="cls-4" d="M82.07,186.44c-.68-.84-1.58-1.56-.83-2.9a3,3,0,0,0,0-2c0-.15-.36-.31-.06-.44s.38.21.4.38c.16,1.12.31,2.25.42,3.37.06.53,0,1.06.12,1.61" transform="translate(-33.59 -39.98)"/><path class="cls-4" d="M175.68,113.39c.8.55,1.11-.2,1.51-.53s.58-.5.86-.18,0,.69-.32.84a2.42,2.42,0,0,0-1.24,1.08.56.56,0,0,1-.91.07,1.4,1.4,0,0,1-.34-1.22c0-.2.32-.11.44-.06" transform="translate(-33.59 -39.98)"/><path class="cls-4" d="M96.62,64.7a5.75,5.75,0,0,1-1-1c-.24-.41.3-.46.51-.64a1.31,1.31,0,0,0,.52-.73c.06-.29.36-.34.62-.24s.45.42.28.59c-.48.5-.42,1.14-.56,1.73-.06.22-.14.34-.42.31" transform="translate(-33.59 -39.98)"/><path class="cls-4" d="M85.1,196.57a10.33,10.33,0,0,1-1.24-3.32c-.12-.87-.91-1.51-1-2.44,0-.31-.16-.61.06-.9.21,0,.28.14.32.28q.93,3.06,1.84,6.12a.76.76,0,0,1,0,.28Z" transform="translate(-33.59 -39.98)"/><path class="cls-4" d="M40.55,74.12c.26-.05.5-.09.62.16s-.13.45-.31.61l-.52.41a1,1,0,0,1-1.2.26c-.23-.12-.49-.36-.33-.59a1.83,1.83,0,0,1,1.13-.92,1.76,1.76,0,0,1,.61.07" transform="translate(-33.59 -39.98)"/><path class="cls-4" d="M174.82,105.1a1.62,1.62,0,0,1,1.57-1.06c.19,0,.38,0,.52-.14s.43-.34.63-.09a.92.92,0,0,1,0,1.06.42.42,0,0,1-.66,0c-.32-.26-.49-.38-.76.11s-.88.18-1.33,0Z" transform="translate(-33.59 -39.98)"/><path class="cls-4" d="M94,238.64c0-.42.08-.57.36-.57a.47.47,0,0,1,.52.45c0,.75,0,1.5-.09,2.24,0,.15-.1.35-.29.3a.58.58,0,0,1-.29-.34,4.94,4.94,0,0,1-.21-2.08" transform="translate(-33.59 -39.98)"/><path class="cls-4" d="M173.59,114.43c-.36,0-.63-.08-.59-.27.13-.62-.32-.89-.64-1.24-.11-.12-.24-.26-.1-.41a.35.35,0,0,1,.51,0,4.08,4.08,0,0,0,1.59,1.09.42.42,0,0,1,.23.56.45.45,0,0,1-.6.3,2.36,2.36,0,0,0-.4,0" transform="translate(-33.59 -39.98)"/><path class="cls-4" d="M108.53,65.65c-.65.24-1.19.73-1.82.95-.34.13-.7-.35-.84-.77s.1-.53.39-.45a4.22,4.22,0,0,0,1.87,0c.21,0,.38,0,.4.27" transform="translate(-33.59 -39.98)"/><path class="cls-4" d="M128.73,52.46A8.78,8.78,0,0,1,131,53a.67.67,0,0,1,.4.68.7.7,0,0,1-.44.67c-.3.14-.64.09-.47-.34.27-.7-.14-.8-.64-.93a11.83,11.83,0,0,1-1.15-.37l.06-.23" transform="translate(-33.59 -39.98)"/><path class="cls-4" d="M176,106.83c-.36-.13-.4-.3-.28-.49s.24-.72.65-.45.45.3.7,0,.23-.5.57-.38.23.28.22.47a.77.77,0,0,1-.44.69c-.5.21-1.09-.79-1.42.15" transform="translate(-33.59 -39.98)"/><path class="cls-4" d="M80,160c-.28-.14-.45-.34-.28-.67a2.45,2.45,0,0,0,.14-2c-.08-.25,0-.59.22-.64s.32.3.35.51c.16.88-.35,1.73-.09,2.62,0,.16-.15.24-.34.18" transform="translate(-33.59 -39.98)"/><path class="cls-4" d="M172.23,102.43a1.81,1.81,0,0,1,1.46-.79c.3.11.26.35.18.55-.24.58-.84.57-1.33.68-.17,0-.35-.22-.31-.44" transform="translate(-33.59 -39.98)"/><path class="cls-4" d="M105,67.54c-.43-.23-.43-.87-.84-1.2,0,0,0-.06,0-.09a.35.35,0,0,1,.54-.19,5.67,5.67,0,0,1,1,1.23c.07.15-.31.33-.67.25" transform="translate(-33.59 -39.98)"/><path class="cls-4" d="M174.28,102.83a.73.73,0,0,1,.49.81c0,.36-.18.64-.56.59s-.48-.35-.34-.7-.1-.68.41-.7" transform="translate(-33.59 -39.98)"/><path class="cls-4" d="M85.87,184.59c.1,0,.14-.07.16-.06.48.19,1.15.14,1.19.9,0,.22-.08.52-.31.5-.8-.1-.65-.91-1-1.34" transform="translate(-33.59 -39.98)"/><path class="cls-4" d="M132.75,54.12c.17-.21.07-.72.53-.61s.49.47.37.84-.3.52-.63.44-.45-.32-.27-.67" transform="translate(-33.59 -39.98)"/><path class="cls-4" d="M83.51,199.06a.37.37,0,0,1-.46.29c-.44-.09-.82.41-1.26.11a.23.23,0,0,1-.07-.16,8.59,8.59,0,0,1,1-.54.59.59,0,0,1,.71.08.54.54,0,0,1,.1.22" transform="translate(-33.59 -39.98)"/><path class="cls-4" d="M79.74,161.64c.26.43,0,.74,0,1.07s-.07.55-.44.44a.44.44,0,0,1-.26-.63,1.32,1.32,0,0,1,.73-.88" transform="translate(-33.59 -39.98)"/><path class="cls-4" d="M174.79,105.07a1.36,1.36,0,0,1-.15.43c-.19.2-.41.43-.73.19s-.32-.41-.08-.63.43-.53.76-.13a1.37,1.37,0,0,0,.23.17Z" transform="translate(-33.59 -39.98)"/><path class="cls-4" d="M96.81,195.94c-.2-.11-.48-.24-.34-.48s.38-.7.83-.63a.29.29,0,0,1,.15.46c-.19.23-.11.76-.64.65" transform="translate(-33.59 -39.98)"/><path class="cls-4" d="M86.37,190.56a.41.41,0,0,1-.63.29c-.25-.1-.58-.24-.52-.58s.37-.26.62-.19.56.15.53.48" transform="translate(-33.59 -39.98)"/><path class="cls-4" d="M88.43,187.18a.73.73,0,0,1-.57-.64c0-.33.28-.3.48-.25s.57.28.53.66-.22.27-.44.23" transform="translate(-33.59 -39.98)"/><path class="cls-4" d="M86.64,193.81a.34.34,0,0,1,.47-.21c.41.12.47.48.45.84,0,.18-.2.23-.37.17-.39-.12-.47-.47-.55-.8" transform="translate(-33.59 -39.98)"/><path class="cls-4" d="M80.16,191.12a.53.53,0,0,1-.72.3c-.23-.09-.5-.22-.39-.54a.51.51,0,0,1,.71-.29c.24.08.46.21.4.53" transform="translate(-33.59 -39.98)"/><path class="cls-4" d="M88.31,198.09a.54.54,0,0,1-.43-.61c0-.27.16-.41.41-.39s.4.34.42.61-.12.4-.4.39" transform="translate(-33.59 -39.98)"/><path class="cls-4" d="M172.59,100.23a.53.53,0,0,1,.64-.25c.37.09.37.36.3.66s-.26.35-.49.22-.49-.28-.45-.63" transform="translate(-33.59 -39.98)"/><path class="cls-4" d="M109.18,64.66a.46.46,0,0,1,.41.47c0,.24.13.49-.07.71,0,0,0,0-.08,0l-.26,0c.45-.63-.69-.53-.48-1,.09-.2.31-.19.48-.19" transform="translate(-33.59 -39.98)"/><path class="cls-4" d="M77,106.66c-.27-.1-.65-.07-.61-.39s.41-.32.69-.28.61.17.52.53-.43.09-.6.14" transform="translate(-33.59 -39.98)"/><path class="cls-4" d="M99.87,59.35a.78.78,0,0,1-.67.42.32.32,0,0,1-.36-.34c0-.33.26-.39.52-.39s.45,0,.51.31" transform="translate(-33.59 -39.98)"/><path class="cls-4" d="M83.5,203.23c0-.33.09-.55.44-.6a.57.57,0,0,1,.63.3c.05.1.1.27.05.34s-.4.08-.6.06a3.58,3.58,0,0,1-.54-.14Z" transform="translate(-33.59 -39.98)"/><path class="cls-4" d="M76.89,159.74c-.4-.1-.61-.33-.59-.67s.26-.25.45-.21.53.2.54.54-.22.33-.4.34" transform="translate(-33.59 -39.98)"/><path class="cls-4" d="M96.52,197c.1-.34.36-.3.61-.25s.49.09.43.38a.47.47,0,0,1-.58.37.49.49,0,0,1-.46-.5" transform="translate(-33.59 -39.98)"/><path class="cls-4" d="M114.21,149.76c.77-1,.77-1,.72-1.69-.81.29-1,.61-.72,1.69m-1-.78c-.2.72-.12,1.49-.39,2.21,0,.13,0,.26.1.32s.27-.08.37-.2a2,2,0,0,0-.08-2.33m1.24-1.34c.13,0,.23-.17.36-.32.59-.68,0-1.18-.17-1.8-.21-.81-.31-.68-.85-.27s-.43.63-.11.89a1.34,1.34,0,0,1,.5,1.06.45.45,0,0,0,.27.44m.9-2.6c1.9-5.85,1.44-12,3.3-17.69-1.68,3.53-3.57,7-4.44,10.81-.09.41-.17.77.39.87a.36.36,0,0,1,.32.49,18.58,18.58,0,0,0-.79,3.21c0,.21-.25.1-.38.14-.69.27-.08.79-.2,1.2s.26.44.53.25c.75-.55.89.14,1.27.72m-10.12,26.3a2.74,2.74,0,0,1,.32-1.7c.45-1.51.76-3.07,1.35-4.54.51-1.26,1.54-2.19,2-3.48,1.61-4.25,3.41-8.42,3.57-13.1.06-2,.19-3.91.3-5.86a27.54,27.54,0,0,1,2.09-9.09c1.14-2.77,2.49-5.45,3.77-8.16.31-.66.53-1.36.78-2,.1-.3.23-.62.57-.34s.94,0,.82.7a2.16,2.16,0,0,1-.15.45,40.13,40.13,0,0,0-3,12.55,80,80,0,0,1-1.56,8.17c-.14.66-.8,1.25-.09,2,0,0,0,.16,0,.17-1.18.23,0,1.4-.73,1.82,0,0-.09.14-.07.16.74.82,0,.92-.52,1.28-.25.18-.81.55-.38,1.1.12.14,0,.18-.1.26a4.76,4.76,0,0,0-1.92,3.08c-.27,1.61-1.18,3-1.75,4.5-1.05,2.74-2.38,5.37-3.63,8-.54,1.14-.7,2.44-1.29,3.57-.09.17,0,.46-.38.52" transform="translate(-33.59 -39.98)"/><path class="cls-4" d="M112.15,166.35c-.52.7-1,1.42-1.55,2.11-.8,1.06-1.62,2.11-2.42,3.16-.19.25-.4.41-.72.21a.47.47,0,0,1-.16-.67c.89-1.38,1.1-3.16,2.41-4.31.18-.16.31-.4.66-.46.24,1-1,1.28-1,2.1,1.1-.49,1.46-1.88,2.63-2.33.05.06.1.13.16.19" transform="translate(-33.59 -39.98)"/><path class="cls-4" d="M122.18,153a2.07,2.07,0,0,1,.71-1.72c.65-.72.91-1.66,1.5-2.4a.59.59,0,0,0,.18-.43c-.27-1.29.65-2,1.35-2.84.21-.25.46-.68.82-.42s-.1.49-.23.72c-.31.54-.7,1-1,1.62s-.76,1.28-.43,2.13c.16.41.3,1.22-.74.83-.42-.16-.47.31-.67.52-.53.59-.63,1.51-1.52,2" transform="translate(-33.59 -39.98)"/><path class="cls-4" d="M120.32,155.53c-.64,1.18-1.17,2.2-1.74,3.19a36.07,36.07,0,0,1-4.14,5.53,1.39,1.39,0,0,1-.26.28c-.2.15-.46.35-.68.14s0-.44.2-.62c1.41-1.71,2.84-3.39,4.2-5.12a20.18,20.18,0,0,0,1.39-2.33c.22-.38.34-.82,1-1.07" transform="translate(-33.59 -39.98)"/><path class="cls-4" d="M129.83,125.66A20,20,0,0,0,128,128.5c-.57,1-1.21,1.92-1.83,2.88-.13.2-.24.54-.54.35s0-.37.09-.56c.39-1.67,1.87-2.72,2.45-4.3.21-.57.9-1,1.38-1.44l.24.23" transform="translate(-33.59 -39.98)"/><path class="cls-4" d="M114.5,161.41c-.25-.14-.45-.34-.21-.65.54-.72,1.33-1.25,1.57-2.21.06-.27.48-.29.74-.12a.38.38,0,0,1,.05.59c-.67.64-1,1.5-1.63,2.18a.46.46,0,0,1-.52.21" transform="translate(-33.59 -39.98)"/><path class="cls-4" d="M113,153.91c.1-.43.2-.92.75-1,.3,0,.34.3.22.49-.25.39-.14,1.12-.82,1.11-.3,0-.23-.38-.15-.63" transform="translate(-33.59 -39.98)"/><path class="cls-4" d="M101.62,187.79c-.1.25-.16.58-.54.52a.46.46,0,0,1-.41-.61c.08-.33.3-.59.67-.51s.34.32.28.6" transform="translate(-33.59 -39.98)"/><path class="cls-4" d="M103.8,182.26c-.15.23-.22.63-.6.57s-.19-.35-.13-.56.21-.55.57-.48.2.26.16.47" transform="translate(-33.59 -39.98)"/><path class="cls-4" d="M117.77,155.69c-.12.22-.29.42-.57.36s-.51-.22-.45-.49.37-.29.61-.28a.37.37,0,0,1,.41.41" transform="translate(-33.59 -39.98)"/><path class="cls-4" d="M115.35,221.34c-1.66,4.59-2.91,9.35-5.6,13.52,1.59-4.62,3.73-9,5.6-13.52" transform="translate(-33.59 -39.98)"/><path class="cls-4" d="M118,203.59c-.49,3.57-1.46,7-1.94,10.62-.39-1.26,1.16-9.74,1.94-10.62" transform="translate(-33.59 -39.98)"/><path class="cls-4" d="M106.67,253.5A4.57,4.57,0,0,0,105,256c-.08.23-.07.5-.13.74s-.17.67-.62.49-.29-.53-.12-.79a3.23,3.23,0,0,0,.47-2c0-.41,0-.82.6-.89.27,0,.4-.29.5-.53s.4-.65.79-.46.26.58.13.91Z" transform="translate(-33.59 -39.98)"/><path class="cls-4" d="M95.65,263.35a2.43,2.43,0,0,0-.41,1.34c0,.33-.28.49-.62.36a.38.38,0,0,1-.2-.61,1.36,1.36,0,0,0,.21-1.24.57.57,0,0,1,.31-.72.45.45,0,0,1,.53.07.89.89,0,0,1,.18.8" transform="translate(-33.59 -39.98)"/><path class="cls-4" d="M113.7,229.73c.51.29.25.65.17,1-.19.77-.35,1.54-.54,2.3-.06.26-.22.51-.55.34s-.47-.36-.27-.6c.71-.89.65-2.07,1.19-3" transform="translate(-33.59 -39.98)"/><path class="cls-4" d="M96.13,251.18c0-.52.25-.6.66-.53.2,0,.6.19.43.3-.39.27-.18,1-.8,1-.4,0-.44-.39-.29-.73" transform="translate(-33.59 -39.98)"/><path class="cls-4" d="M97,253.66c.09-.38.36-.31.6-.29.55,0,.48.44.49.82s-.07.45-.34.41c-.55-.08-.51-.63-.75-.94" transform="translate(-33.59 -39.98)"/><path class="cls-4" d="M108.07,243.71c-.39-.06-.38-.31-.34-.63s.24-.47.57-.34.59.13.47.54a.54.54,0,0,1-.7.43" transform="translate(-33.59 -39.98)"/><path class="cls-4" d="M109.92,244.61c-.23-.1-.5-.2-.37-.52s.32-.68.71-.61.28.42.22.7-.19.53-.56.43" transform="translate(-33.59 -39.98)"/><path class="cls-4" d="M96.26,254c-.24.4.44.95-.22,1.21a.48.48,0,0,1-.65-.39c-.16-.69.7-.38.87-.82" transform="translate(-33.59 -39.98)"/><path class="cls-4" d="M104.85,241c.09-.43.36-.43.67-.41s.46.07.33.4-.1.63-.49.58-.45-.31-.51-.57" transform="translate(-33.59 -39.98)"/><path class="cls-4" d="M104.9,243c.1-.33.13-.73.57-.76s.39.23.3.46-.24.86-.73.85c-.29,0-.13-.35-.14-.55" transform="translate(-33.59 -39.98)"/><path class="cls-4" d="M99.06,261c0-.34.26-.38.5-.36.41,0,.52.29.49.64a.36.36,0,0,1-.44.37c-.38-.07-.41-.42-.55-.65" transform="translate(-33.59 -39.98)"/><path class="cls-4" d="M109.49,245.34c-.22.3-.47.57-.92.44-.17,0-.31-.17-.22-.34a1,1,0,0,1,1-.46c.18,0,.28.14.18.36" transform="translate(-33.59 -39.98)"/><path class="cls-4" d="M98.32,246.74c-.21-.1-.42-.22-.36-.48s.44-.4.75-.4.41.14.29.35-.28.59-.68.53" transform="translate(-33.59 -39.98)"/><path class="cls-4" d="M98,248.12c-.12.35-.25.61-.61.54a.4.4,0,0,1-.35-.48.58.58,0,0,1,.63-.45c.3,0,.34.21.33.39" transform="translate(-33.59 -39.98)"/><path class="cls-4" d="M108.13,248.43c-.19-.06-.4-.15-.33-.38a.81.81,0,0,1,.74-.49c.19,0,.27.16.23.32-.08.32-.24.58-.64.55" transform="translate(-33.59 -39.98)"/><path class="cls-4" d="M92,83c.55.12.55.12.18.61a.39.39,0,0,0-.06.24c0,.36.19.94-.32.82a1.14,1.14,0,0,1-.68-1.28c.09-.53.46-.62.88-.39" transform="translate(-33.59 -39.98)"/><path class="cls-4" d="M95.93,120.36a3.53,3.53,0,0,1-.21.85c-.21.33-.62.25-.67,0a6.36,6.36,0,0,1,0-1.63c0-.18.24-.15.4-.13a.47.47,0,0,1,.46.4,1.87,1.87,0,0,1,0,.52" transform="translate(-33.59 -39.98)"/><path class="cls-4" d="M90.51,123.65c0-.37.2-.52.39-.44.62.27.64.92.79,1.46a.25.25,0,0,1-.33.32c-.63-.28-.44-1-.85-1.34" transform="translate(-33.59 -39.98)"/><path class="cls-4" d="M83.64,114.24c-.32-.18-.59-.4-.53-.8s.31-.36.58-.28.43.4.38.73-.16.39-.43.35" transform="translate(-33.59 -39.98)"/><path class="cls-4" d="M89.7,124.8a.42.42,0,0,1,.56-.22.7.7,0,0,1,.45.82.26.26,0,0,1-.43.17c-.26-.2-.58-.38-.58-.77" transform="translate(-33.59 -39.98)"/><path class="cls-4" d="M94.53,117.55a.41.41,0,0,1,.55-.28.74.74,0,0,1,.5.82c0,.19-.23.21-.38.14-.3-.15-.64-.28-.67-.68" transform="translate(-33.59 -39.98)"/><path class="cls-4" d="M91.7,86.5c.11.48.29.87,0,1.24-.08.12-.21,0-.3-.1-.32-.41-.16-.74.27-1.14" transform="translate(-33.59 -39.98)"/><path class="cls-4" d="M91,89.52c-.21-.07-.45-.15-.36-.43a.63.63,0,0,1,.67-.41c.25,0,.26.24.23.43a.46.46,0,0,1-.54.41" transform="translate(-33.59 -39.98)"/><path class="cls-4" d="M56.67,76.76a1.88,1.88,0,0,0,2.1-1,3.21,3.21,0,0,1,1.32-1.17,1,1,0,0,0,.74-1c.1-.92,1-1,1.6-1.37.35-.19.59.29.59.74a3.2,3.2,0,0,1-.93,1.93,5.8,5.8,0,0,1-4.16,2.45,1.27,1.27,0,0,1-1.26-.58" transform="translate(-33.59 -39.98)"/><path class="cls-4" d="M55.47,80.69c.36-.1.29-.46.51-.59s.32-.34.57,0c.46.7,1.16.59,1.58-.12a3.23,3.23,0,0,0,.38-.74.44.44,0,0,1,.57-.22c.27.1.3.31.12.53s0,.41.24.47.56.06.53.41-.31.35-.57.37-.47.14-.35.42.18.54-.27.59-.77.21-1-.29c-.08-.2,0-.5-.38-.39s-.42.27-.37.65c.09.68-.48.7-1,.7-.2,0-.39-.1-.23-.44.28-.61.24-.62-.45-.55-.47,0-.94-.33-1.42,0,0,0-.18-.08-.21-.15a.53.53,0,0,1,.26-.65c.39-.24.47-.9,1-.84s.15.54.35.81" transform="translate(-33.59 -39.98)"/><path class="cls-4" d="M61.88,79.82a1.76,1.76,0,0,0-1.14-.24c-.26,0-.53,0-.63-.32s.16-.46.38-.57c.47-.23,1-.33,1-1.06,0-.13.22-.21.39-.18.35.06.32.33.33.59s-.32.79.45.65c.3,0,.26.38.14.6-.2.39-.47.68-.93.53" transform="translate(-33.59 -39.98)"/><path class="cls-4" d="M65.3,72.59c.67-.26,1.25-.48.87-1.29a.27.27,0,0,1,.23-.41c.25,0,.42.09.42.37a3.56,3.56,0,0,0,0,.55c.09.41.21.87-.17,1.13s-.81,0-1.31-.35" transform="translate(-33.59 -39.98)"/><path class="cls-4" d="M53.41,80.05c-.25,0-.54-.19-.39-.4a2.14,2.14,0,0,1,.91-.78c.27-.11.36.24.33.52,0,.54-.45.61-.85.66" transform="translate(-33.59 -39.98)"/><path class="cls-4" d="M63.5,77.66c.06-.23.18-.42.46-.35a.39.39,0,0,1,.3.51c-.05.28-.22.48-.53.39a.41.41,0,0,1-.23-.55" transform="translate(-33.59 -39.98)"/><path class="cls-4" d="M139.07,62.65c.75.24,1.35.53,1.49,1.39,0,.25,0,.59.37.71s.8.08.61.62-.29,1.24-.94,1.45c-1.07.33-3.33-1.12-3-2.4.19-.85.4-1,1.33-.5a.87.87,0,0,0-.48,1.39A2.29,2.29,0,0,0,140,66.48c.26,0,.45-.39.41-.42-.76-.66,0-1.88-.94-2.47a.86.86,0,0,1-.44-.94" transform="translate(-33.59 -39.98)"/><path class="cls-4" d="M139.71,70.19a.57.57,0,0,0,0-.19c-.08-.38,0-.63.45-.63a.59.59,0,0,1,.66.63,1.42,1.42,0,0,0,.14,1,.22.22,0,0,1-.13.37c-.53,0-.89.68-1.47.41a.8.8,0,0,1-.49-.65c0-.22.14-.27.3-.25.39,0,.5-.17.55-.68" transform="translate(-33.59 -39.98)"/><path class="cls-4" d="M133.2,65.16c.1-.41-.39-1,0-1.42a.36.36,0,0,1,.35,0c.43.33,1.29.23,1.16,1.12-.07.43-1.1,1.14-1.43,1s-.47-.32-.12-.72" transform="translate(-33.59 -39.98)"/><path class="cls-4" d="M141.35,71.54c.08-.58,1-1.64,1.23-1.56.66.23.53,1,.51,1.33,0,.77-.83.36-1.29.49-.3.09-.46-.11-.45-.26" transform="translate(-33.59 -39.98)"/><path class="cls-4" d="M136.43,70.54a2.4,2.4,0,0,1-.4-.41c-.1-.15,0-.28.11-.41.52-.56,1.3-.56,1.92-.9a.27.27,0,0,1,.37.2,1.16,1.16,0,0,1-.47,1c-.47.29-1.15-.11-1.53.54" transform="translate(-33.59 -39.98)"/><path class="cls-4" d="M135.27,68.74c.33-.3.06-.42-.07-.57a.72.72,0,0,1,0-.88.33.33,0,0,1,.49-.13c.29.17.25.48.27.76s-.3.49.14.6c.29.08.48.27.28.54a.74.74,0,0,1-.91.32.39.39,0,0,1-.18-.64" transform="translate(-33.59 -39.98)"/><path class="cls-4" d="M145.06,69.39c.07.56-.36.82-.76,1.06a.39.39,0,0,1-.52-.09.3.3,0,0,1,.1-.48,1.44,1.44,0,0,0,.49-.79c.1-.29.11-.7.58-.51s.28.5.11.81" transform="translate(-33.59 -39.98)"/><path class="cls-4" d="M134.41,66.83c-.37-.06-.41-.25-.34-.44.14-.4.4-.71.88-.64.19,0,.43.17.28.36a6.4,6.4,0,0,1-.82.72" transform="translate(-33.59 -39.98)"/><path class="cls-4" d="M142.12,60.08c-.28-.06-.64.05-.59-.35a.44.44,0,0,1,.58-.34c.33.08.78.25.69.63s-.48-.09-.68.06" transform="translate(-33.59 -39.98)"/><path class="cls-4" d="M143.93,61.5c.66-.15.81.27.93.7,0,.14,0,.29-.17.27-.52-.09-.59-.54-.76-1" transform="translate(-33.59 -39.98)"/><path class="cls-4" d="M165.38,95.39c-.43.16-.93.15-1.15.67,0,.08.08.32.1.31a1.36,1.36,0,0,0,1.11-.83s0-.05-.06-.15m-1-3.23c-.11.23-.32.16-.5.17-.49,0-1.3-.14-.41.74.33.32.05.63-.34.76-.15,0-.34.07-.33.27s.24.23.38.33c.77.56,1.67.18,2.49.41.33.09.36-.24.3-.44a2.75,2.75,0,0,0-.35-.76c-.1-.16-.29-.32-.11-.49s.43-.08.6.06a1.54,1.54,0,0,1,.67,1.49A3.27,3.27,0,0,1,165,97a1.89,1.89,0,0,1-2.62-.77,3.73,3.73,0,0,1-.31-3.87,1.41,1.41,0,0,1,2.27-.21" transform="translate(-33.59 -39.98)"/><path class="cls-4" d="M164.17,99.8a12.1,12.1,0,0,1,1-.8c.27-.19.47,0,.59.24a.92.92,0,0,0,.17.22c.22.2.82.19.48.68s-.58,0-.85-.17-.44,0-.65.15-.56,0-.71-.32" transform="translate(-33.59 -39.98)"/><path class="cls-4" d="M159.8,97.89c-.28-.14-.82-.06-.75-.59,0-.25.2-.7.59-.61s.68.66.77,1-.36.14-.61.15" transform="translate(-33.59 -39.98)"/><path class="cls-4" d="M159.21,94.61c.31.06.58.17.49.54a.43.43,0,0,1-.63.35c-.28-.15-.76-.25-.67-.65s.51-.26.81-.24" transform="translate(-33.59 -39.98)"/><path class="cls-4" d="M78.74,64.09a.39.39,0,0,0,0,.44,1.19,1.19,0,0,1-.76,1.81,4.22,4.22,0,0,0-1.29.76A3.47,3.47,0,0,1,74,68c-.83,0-1.11-.53-.73-1.29a.87.87,0,0,1,.16-.23c.23-.22-.06-.82.51-.74s.5.48.49.88c0,.21,0,.51.31.49s.38-.19.32-.47,0-.53.29-.46c.61.16,1.08.31,1-.63,0-.16.47-.13.58.15s.32.33.6.21a1.2,1.2,0,0,0,.67-.64c.09-.23-.07-.34-.3-.35s-.31.06-.47,0c-.45,0-1,0-1.08-.53s.48-.74,1-.68c.32,0,.52-.19.78-.3a.6.6,0,0,1,.63,0c.24.2.11.39,0,.58" transform="translate(-33.59 -39.98)"/><path class="cls-4" d="M84.48,65.66A7,7,0,0,0,84,66.9a.55.55,0,0,1-.82.37c-.44-.21-.22-.48,0-.74.59-.71,0-1.36-.12-2-.06-.24-.36-.57,0-.74a.58.58,0,0,1,.82.42c.13.5,1.07.5.63,1.49" transform="translate(-33.59 -39.98)"/><path class="cls-4" d="M79.35,69.11c.1-.36-.26-.46-.4-.69s-.28-.37-.13-.6a.34.34,0,0,1,.24-.11.41.41,0,0,1,.46.38,1,1,0,0,0,.47.85.41.41,0,0,1,0,.71,3.8,3.8,0,0,0-1.31.78c-.09.11-.31,0-.39-.16s0-.46.25-.62.7-.14.85-.54" transform="translate(-33.59 -39.98)"/><path class="cls-4" d="M80.86,69.06c-.43-.08-1.07-1.58-.86-2,0,0,.07-.12.12-.13.73,0,.86.71,1.31,1,.28.2,0,.76-.33,1-.07,0-.19,0-.24,0" transform="translate(-33.59 -39.98)"/><path class="cls-4" d="M78.23,69.16c-.08.06-.19.21-.26.2-.6-.13-.52.13-.41.56.06.24-.22.46-.52.43s-.36-.22-.18-.47,0-.23-.07-.32c-.28-.2-.57-.48,0-.65s1-.48,1.41,0a1,1,0,0,1,.07.22" transform="translate(-33.59 -39.98)"/><path class="cls-4" d="M76.31,70.09a.23.23,0,0,1-.3.15c-.51-.3-.93.7-1.44.1a.33.33,0,0,1-.08-.26.71.71,0,0,1,.51-.51,1.23,1.23,0,0,1,1.15.22c.1.07.21.15.16.3" transform="translate(-33.59 -39.98)"/><path class="cls-4" d="M82.24,68.2a.37.37,0,0,1-.31-.49c.06-.36.35-.39.64-.37s.39.18.31.44a.54.54,0,0,1-.64.42" transform="translate(-33.59 -39.98)"/><path class="cls-4" d="M82.12,65.31c0-.16.11-.25.25-.22a.93.93,0,0,1,.72.78c0,.18-.09.35-.26.25a1.49,1.49,0,0,1-.71-.81" transform="translate(-33.59 -39.98)"/><path class="cls-4" d="M65.8,52.29c-1,.57-2,1.13-3,1.68a2.34,2.34,0,0,1-1.47.25c-.43,0-.88-.25-.84-.73a.73.73,0,0,1,1-.63c1.32.83,2.29-.14,3.39-.49.27-.08.56-.31.91-.08" transform="translate(-33.59 -39.98)"/><path class="cls-4" d="M55,56.14c-.29-.17-.49-.21-.64.21s-.65.2-.74,0a2.37,2.37,0,0,1,0-1.62c.08-.42.48-.45.84-.47.18,0,.52.1.39.24-.75.81.33.65.49,1s.47.31.3.61-.39.1-.6,0" transform="translate(-33.59 -39.98)"/><path class="cls-4" d="M55.87,59.82c-.81-.07-.9-.34-.33-1,.33-.4.83-.81.69-1.47a.3.3,0,0,1,.29-.4.83.83,0,0,1,.44.12c.19.13.16.33.06.51s-.33.53-.46.81-.25.43,0,.6.58.33.3.72-.6.25-1,.13" transform="translate(-33.59 -39.98)"/><path class="cls-4" d="M62.21,57.49c.26,0,.69.21.37.5-.65.61,0,1,.14,1.46.1.25.22.45.07.69a.49.49,0,0,1-.51.19.52.52,0,0,1-.43-.55,7,7,0,0,0-.38-1.63c-.12-.64.12-.83.74-.66" transform="translate(-33.59 -39.98)"/><path class="cls-4" d="M54.82,58c-.17-.09-.33-.22-.51,0s-.13.38.07.57a.39.39,0,0,1-.11.69c-.34.16-.45-.11-.58-.41s-.42-.67-.16-1.12c.18-.3.34-.73.72-.64a4.72,4.72,0,0,1,1.2.66s0,.19,0,.26-.39.12-.59,0" transform="translate(-33.59 -39.98)"/><path class="cls-4" d="M60.12,59c.08-.3-.15-.77.48-.67s.47.4.38.83c-.14.59,0,1.52-.82,1.39-.46-.07,0-1,0-1.55" transform="translate(-33.59 -39.98)"/><path class="cls-4" d="M66.6,58.18c-.21.29-.33.77-.73.65s-.49-.69-.49-1.1a.52.52,0,0,1,.59-.59c.55.11.5.65.63,1" transform="translate(-33.59 -39.98)"/><path class="cls-4" d="M66.86,56.15c-.2-.38-.91-.39-.88-1a.31.31,0,0,1,.5-.23c.34.25,1,.07,1,.77,0,.32-.21.51-.64.49" transform="translate(-33.59 -39.98)"/><path class="cls-4" d="M63.55,59.87c-.2-.61-.38-1.07-.49-1.55a.34.34,0,0,1,.39-.41c.64.13.6.81.81,1.24.11.23-.47.32-.71.72" transform="translate(-33.59 -39.98)"/><path class="cls-4" d="M59.43,59.24c0,.23-.12.32-.24.29-.49-.1-.65.22-.85.57a.4.4,0,0,1-.64.13c-.25-.24.08-.38.14-.57.18-.47.65-.58,1-.78s.47.17.57.36" transform="translate(-33.59 -39.98)"/><path class="cls-4" d="M57.19,58.17c0-.27,0-.6.4-.5s.28.5.24.79,0,.61-.37.55c-.52-.09-.26-.54-.27-.84" transform="translate(-33.59 -39.98)"/><path class="cls-4" d="M64.5,57.73c-.24-.13-.62-.18-.59-.57s.29-.33.51-.26.6.25.56.63c0,.21-.25.25-.48.2" transform="translate(-33.59 -39.98)"/><path class="cls-4" d="M118.72,57.85a2.89,2.89,0,0,0,2.61,1.21c-.88-.2-1.49-1.13-2.61-1.21m4,.47a1.38,1.38,0,0,1-1.93,1.24,13.72,13.72,0,0,1-1.5-.59,3.76,3.76,0,0,1-2-4.52.75.75,0,0,1,.7-.55c.49,0,1-.27,1.45.14s.22.64-.25.63c-.84,0-.63.36-.37.81s.45,1,1.33.78a2.48,2.48,0,0,1,2.52,1.62,2.7,2.7,0,0,1,.07.44" transform="translate(-33.59 -39.98)"/><path class="cls-4" d="M124.82,61.69c-.06-1,.81-1.6.61-2.55-.09-.4.46-.44.57-.22.28.55.88,1.06.39,1.79a1.46,1.46,0,0,0-.21.52,2,2,0,0,1-1.75,1.87c-1.31.28-2.55-.35-3.84-.21a.33.33,0,0,1-.34-.28c0-.2.13-.25.3-.28.41-.08.64-.2.54-.75s1.09-.95,1.47-.69.56.39.77.18c.9-1,1.22-.36,1.49.62" transform="translate(-33.59 -39.98)"/><path class="cls-4" d="M118.13,62.37c.7.08,1-.1,1-.62s-.5-.22-.76-.31-.52-.41-.88-.5-.44-.13-.38.25c0,.16.08.34-.14.37a.38.38,0,0,1-.41-.33c0-.49-.12-1.07.47-1.28s1-.16,1.06.54c0,.16.08.42.23.34.81-.42,1.2.53,1.87.54.29,0,.5.12.49.44s-.2.39-.45.36-.6.22-.83.4c-.53.42-.51.44-1.27-.2" transform="translate(-33.59 -39.98)"/><path class="cls-4" d="M113,53.25s.18,0,.38,0,1.08,1,1,1.25-.23.29-.42.29-1-.92-1-1.52" transform="translate(-33.59 -39.98)"/><path class="cls-4" d="M114.14,51.39c.08-.36.27-.66.64-.57.56.14.28.69.36,1s-.26.51-.59.44c-.54-.11-.34-.59-.41-.92" transform="translate(-33.59 -39.98)"/><path class="cls-4" d="M113.94,51a4.83,4.83,0,0,1-1,.58c-.14.06-.41-.4-.34-.41.61,0-.11-1.07.69-.87a.73.73,0,0,1,.6.7" transform="translate(-33.59 -39.98)"/><path class="cls-4" d="M163.87,108.23a2.58,2.58,0,0,1-2.41-3,.59.59,0,0,1,.58-.61c.39-.06.48.21.48.53a5.66,5.66,0,0,1,.06.93,1.67,1.67,0,0,0,1.43,1.82c.19,0,.41,0,.51-.16s-.1-.36-.26-.43c-1.11-.47-.25-1.29-.35-1.93,0-.12.15-.16.29-.17a2.62,2.62,0,0,1,1.73,1.3,1.74,1.74,0,0,1-1.36,1.66,3.86,3.86,0,0,1-.7,0" transform="translate(-33.59 -39.98)"/><path class="cls-4" d="M157.33,105.81c.41.32,1.13-.57,1.45.47a2,2,0,0,0,.88,1.29c.19.1,0,.4-.2.55s-.39.3-.58.09c-.54-.59-.73-.22-.85.3-.08.35-.31.69-.61.55a1.4,1.4,0,0,1-.72-1c0-.15.17-.26.33-.28.65-.07.88-.54,1.14-1.13-.62,0-1.15,0-.84-.84Z" transform="translate(-33.59 -39.98)"/><path class="cls-4" d="M158.42,110.38a6.4,6.4,0,0,1-.9-.29c-.23-.11-.32-.48-.08-.49.77,0,1.12-1.08,2-.77.27.09.68-.12.81.26s-.21.7-.47.83a8.94,8.94,0,0,1-1.39.46" transform="translate(-33.59 -39.98)"/><path class="cls-4" d="M157.33,105.8c-.21.24-.67.39-.32.83.17.22.22.39-.07.51a.58.58,0,0,1-.69-.17c-.39-.42,0-2,.53-2.17.28-.08.5.07.46.41s-.27.45.09.61Z" transform="translate(-33.59 -39.98)"/><path class="cls-4" d="M157.55,104.45c0-.74-1.27.37-1-.73a.59.59,0,0,1,.78-.48.87.87,0,0,1,.79.91c0,.26-.29.28-.54.3" transform="translate(-33.59 -39.98)"/><path class="cls-4" d="M158.34,102.81c-.22-.1-.49-.23-.39-.53s.42-.26.66-.24a.35.35,0,0,1,.35.45.51.51,0,0,1-.62.32" transform="translate(-33.59 -39.98)"/><path class="cls-4" d="M157.49,101.65c-.07.24,0,.61-.4.5s-.33-.42-.28-.71.08-.57.44-.49.25.44.24.7" transform="translate(-33.59 -39.98)"/><path class="cls-4" d="M162.72,79.52c0,.43-.35.65-.6.91s-.46.38-.32.62c.46.83-.41.82-.69,1.17-.1.12-.3,0-.43-.07s-.2-.29-.07-.41c.75-.69,0-1.28-.13-2,.4-.2.77.25,1.14.1s.61-.57,1.1-.35" transform="translate(-33.59 -39.98)"/><path class="cls-4" d="M162.52,82.29a.56.56,0,0,0,.09-.17c0-.41-.35-.89.11-1.23s.71.42,1.2.3.41.22.36.54c-.12.76-.88.93-1.28,1.44-.1.12-.29,0-.41-.12a.53.53,0,0,1-.07-.76" transform="translate(-33.59 -39.98)"/><path class="cls-4" d="M165.89,78.67a1.75,1.75,0,0,1-2-.77.34.34,0,0,1,0-.25c.16-.11.31,0,.43.09a2.18,2.18,0,0,0,1.51.93" transform="translate(-33.59 -39.98)"/><path class="cls-4" d="M167.55,82c-.17.37-.55.34-.86.4s-.51-.1-.46-.33c.09-.43.54-.3.84-.39a.36.36,0,0,1,.48.32" transform="translate(-33.59 -39.98)"/><path class="cls-4" d="M81.62,54.43c-.44,0-.88,0-1.31,0a1.08,1.08,0,0,1-.9-.19c-.29-.28-.75-.62-.52-1s.72-.14,1,.07c.78.55,1.28.07,1.83-.4.26-.22.53-.71.94-.39s.11.71-.08,1-.12,1.19-1,.87" transform="translate(-33.59 -39.98)"/><path class="cls-4" d="M81.71,58.59c-.41-.22-.85-.58-.44-.93a4,4,0,0,0,.88-1.51c.19-.39.42-.46.73-.27a.49.49,0,0,1,.08.81c-.43.43-.88.79-.71,1.52.06.29-.29.34-.54.38" transform="translate(-33.59 -39.98)"/><path class="cls-4" d="M88.15,54.67c-.45-.08-.84-.16-1.17.3-.21.29-1.73-.07-1.92-.4s0-.61.27-.47c.87.45,1.75,0,2.6.17.12,0,.24.09.22.4" transform="translate(-33.59 -39.98)"/><path class="cls-4" d="M84.37,56.36l-.22.56c-.11.29-.22.65-.64.47s-.26-.5-.13-.8c.06-.14.11-.29.17-.43.14-.33-.13-1,.5-.89s.23.73.32,1.09" transform="translate(-33.59 -39.98)"/><path class="cls-4" d="M75.65,56.19c-.26-.08-.46-.31-.31-.49s.13-1,.73-1c.3,0,.54.29.37.5s-.21.92-.79.94" transform="translate(-33.59 -39.98)"/><path class="cls-4" d="M75.82,57.58a.8.8,0,0,0-1.17-.21s-.18-.08-.22-.15a.24.24,0,0,1,0-.23,1.64,1.64,0,0,1,1.71.09.42.42,0,0,1,.06.45c-.07.1-.2.15-.42,0" transform="translate(-33.59 -39.98)"/><path class="cls-4" d="M79.89,56.78c.27.31,1,0,1,.62,0,.36-.41.33-.57.19-.31-.29-1-.08-1-.68,0-.3.32-.19.55-.13" transform="translate(-33.59 -39.98)"/><path class="cls-4" d="M76.88,56.88c-.28-.13-.44-.34-.29-.61a1.2,1.2,0,0,1,.92-.58c.15,0,.24.23.11.36s-.14.89-.74.83" transform="translate(-33.59 -39.98)"/><path class="cls-4" d="M77.3,58c-.19-.07-.46-.12-.37-.42a.61.61,0,0,1,.58-.41c.27,0,.41.15.35.43a.48.48,0,0,1-.56.4" transform="translate(-33.59 -39.98)"/><path class="cls-4" d="M148.53,97.13a4.53,4.53,0,0,1-3.05-2.43,3,3,0,0,1,.13-2.19c.09-.22.29-.43.51-.31.57.32,1.4.35,1.53,1.22,0,.16,0,.32,0,.48s0,.61.32.74.42-.2.63-.32c.41-.22.2-.42,0-.66s-.18-.64.19-.79.57,0,.62.36.28.43.51.49c.84.19,1.11.66.78,1.46,0,.09,0,.19-.06.27-.14.44.73,1,.23,1.11-.84.23-1.63,1-2.38.57" transform="translate(-33.59 -39.98)"/><path class="cls-4" d="M143.89,95.76c1.09-.18,1,.63,1,1.21s0,.72.64.6,1.14.54,1.65.92a.27.27,0,0,1,.09.26,2.31,2.31,0,0,1-1.79,1.16,1,1,0,0,1-1.23-.89c0-1-.63-1.26-1.33-1.58-.44-.2-.85-.47-.59-1.07.07-.17.11-.3-.08-.39-1.44-.71-.66-2.08-.94-3.14-.06-.2.19-.28.39-.32a.43.43,0,0,1,.56.24,1.45,1.45,0,0,0,.89.89.41.41,0,0,1,.19.64c-.48.59.54.88.27,1.43,0,0,.21.08.3,0" transform="translate(-33.59 -39.98)"/><path class="cls-4" d="M149.12,99.39a3.39,3.39,0,0,1,.25-.78c.12-.21.39-.14.61-.09s.34.25.29.5c-.08.42-.2.85.49.85a.36.36,0,0,1,.37.45.66.66,0,0,1-.45.56.41.41,0,0,1-.57-.18c-.24-.65-.4-1-1.12-.31-.33.32-1.1.23-1.67.26a.56.56,0,0,1-.57-.54c-.06-.43.29-.43.57-.42s.55-.07.45-.48c-.05-.23-.24-.55.1-.66a.62.62,0,0,1,.76.41c.09.17.13.36.2.53l.29-.1" transform="translate(-33.59 -39.98)"/><path class="cls-4" d="M154.71,94c-.16.28-.15.73-.56.68s-.49-.36-.47-.71.14-.75-.22-1-.49-.48-.12-.76a.67.67,0,0,1,1,.19,7.51,7.51,0,0,1,.37,1.64" transform="translate(-33.59 -39.98)"/><path class="cls-4" d="M153.57,96.59c-.35-.07-.73-.19-.59-.57s.55-.37.9-.31a.53.53,0,0,1,.5.58c-.09.5-.52.28-.81.3" transform="translate(-33.59 -39.98)"/><path class="cls-4" d="M142.5,91.09a2,2,0,0,1-.81-.94c-.1-.27.27-.34.46-.26a1.09,1.09,0,0,1,.8.91c0,.17-.17.32-.45.29" transform="translate(-33.59 -39.98)"/><path class="cls-4" d="M141.4,81.34a5.24,5.24,0,0,1-2.91-2.89,1.45,1.45,0,0,1,.95-1.88c.48-.1,1.13-.26.85.67-.08.28.08.42.26.55s.48.49.76.54c.64.12.45.85.78,1s.65-.62,1.21-.49c.3.08.51.22.54.56a2,2,0,0,1-2.44,1.91" transform="translate(-33.59 -39.98)"/><path class="cls-4" d="M138.66,82.11c.2,0,.47,0,.51.18.18.68.59.67,1.2.62s.34.49.23.82a5.33,5.33,0,0,1-1.64,0c0-.78-.71-.64-1.07-.93s-1-.22-.77-1.07c.11-.35-.43-.34-.72-.17s-.5.17-.67-.08.17-.36.3-.53.24-.69.77-.64.75,0,.72.6c0,.29.86,1.13,1.14,1.17" transform="translate(-33.59 -39.98)"/><path class="cls-4" d="M133.9,77.23c-.18-.12-.39-.22-.42-.48s0-.5.27-.53c.51-.07.7-.49,1-.78a.66.66,0,0,1,1.07,0c.3.38-.11.66-.34.86-.44.36-1.25.19-1.41,1a.77.77,0,0,1-.18,0" transform="translate(-33.59 -39.98)"/><path class="cls-4" d="M136.73,79.07a3,3,0,0,1-1.28,1.1c-.19,0-.43-.27-.34-.38.3-.35.16-1.1.87-1,.27,0,.64,0,.75.32" transform="translate(-33.59 -39.98)"/><path class="cls-4" d="M145,82.85c.56,0-.13-1,.61-.83.33.07.92.26.75.76a1,1,0,0,1-1.11.5c-.19,0-.36-.12-.25-.43" transform="translate(-33.59 -39.98)"/><path class="cls-4" d="M134.92,78.22c-.31,0-.42-.14-.48-.3s-.06-.32.09-.42a2,2,0,0,1,1.42-.35.36.36,0,0,1,.31.3c0,.09,0,.24-.09.25-.48.11-1.1-.16-1.25.52" transform="translate(-33.59 -39.98)"/><path class="cls-4" d="M176.81,89.33a1.89,1.89,0,0,1-1.51-1.16c-.1-.23-.1-.45.17-.55a.33.33,0,0,1,.47.18c.15.47.31,1,.89,1a2.71,2.71,0,0,0,2-.81c.19-.2.37-.56.67-.29s0,.62-.21.78a3.82,3.82,0,0,1-2.44.87" transform="translate(-33.59 -39.98)"/><path class="cls-4" d="M178.21,93.45a2.56,2.56,0,0,1-.52-.3.69.69,0,0,0-1-.1,1.27,1.27,0,0,1-.91.17c-.26,0-.57,0-.59-.34s.37-.18.57-.24A3.85,3.85,0,0,0,177.5,92c.37-.33.78-.32.84.33,0,.19,0,.39.23.46s.58,0,.44.41-.47.21-.8.23" transform="translate(-33.59 -39.98)"/><path class="cls-4" d="M179.64,92.65c0-.13.25-.27.48-.3a2.87,2.87,0,0,0,1.46-.55.32.32,0,0,1,.49.07c.15.19,0,.36-.1.49a11.85,11.85,0,0,1-1.83,1.13c-.57.36-.45-.31-.5-.84" transform="translate(-33.59 -39.98)"/><path class="cls-4" d="M181.28,90.45c.28,0,.51.22.42.5a1.1,1.1,0,0,1-.92.81c-.14,0-.32-.22-.16-.31.4-.24-.15-1.08.66-1" transform="translate(-33.59 -39.98)"/><path class="cls-4" d="M172.46,87.32c-.22-.34-.9-.27-.9-.89,0-.19.26-.25.36-.14.33.34,1.1.1,1.12.79,0,.23-.27.32-.58.24" transform="translate(-33.59 -39.98)"/><path class="cls-4" d="M174.34,90a9,9,0,0,1-1.17.24c-.26,0-.37-.25-.28-.48.22-.63.69-.14,1-.18s.42.09.41.42" transform="translate(-33.59 -39.98)"/><path class="cls-4" d="M44.51,86.59c.65-.19,1.16-.2,1.16.74a1.54,1.54,0,0,0,.26.69.57.57,0,0,1-.24.88.5.5,0,0,1-.79-.24c-.14-.36-.27-.43-.6-.16-.58.47-1.14.08-1.62-.21s.09-.55.19-.91c-1-.1-.68-1.25-1.29-1.73-.14-.12,0-.36.24-.4s.5.06.52.3c.06.91.42,1.2,1.32.82.27-.12.43.18.34.49s-.4.66,0,.92a.66.66,0,0,0,.72-.13c.45-.44-.36-.57-.24-1.06" transform="translate(-33.59 -39.98)"/><path class="cls-4" d="M46.2,82.47A1.17,1.17,0,0,0,47.62,82l.11-.16a1.51,1.51,0,0,1,1.55-.47c.2,0,.41.13.34.34-.18.52-.23,1.13-.86,1.39s-1.43.63-2.15,1c-.26.11-.58.09-.64-.19-.11-.47-.85-.58-.66-1.15.14-.42.48-.45.89-.19" transform="translate(-33.59 -39.98)"/><path class="cls-4" d="M46.5,67.82c-.59.16-1.25.66-1.58-.36-.07-.21-.1-.35.14-.44a1.47,1.47,0,0,1,1.4.82l0,0" transform="translate(-33.59 -39.98)"/><path class="cls-4" d="M48.5,63.1c-.47.51-1,.9-1.67.53-.17-.1-.3-.29-.16-.47s.25,0,.37.08c.53.44,1,0,1.46-.14" transform="translate(-33.59 -39.98)"/><path class="cls-4" d="M44.35,66.21c0,.25-.16.43-.43.39s-.34-.25-.34-.48a.4.4,0,0,1,.49-.42c.27,0,.27.3.28.51" transform="translate(-33.59 -39.98)"/><path class="cls-4" d="M153.42,82.77a3.72,3.72,0,0,1-2.51-4.08c.14-.52.34-.75.82-.58s.37.51.14.84a.59.59,0,0,0,0,.08,1.18,1.18,0,0,0,0,.43c1.16-.6.38,1.86,1.65,1.05.45-.29.69,0,.9.35s.34.61.72.39a.46.46,0,0,0,.11-.73.32.32,0,0,1,.07-.5c.29-.18.37.11.51.26.69.76.07,1.31-.38,1.78a3.7,3.7,0,0,1-2,.71" transform="translate(-33.59 -39.98)"/><path class="cls-4" d="M152.35,84.41c-.32.08-.33.35-.35.59a1.61,1.61,0,0,0,.07.37c.05.26-.22.56-.29.47-.39-.51-1.14.09-1.42-.5a.56.56,0,0,1,.34-.77c.19-.08.48,0,.58-.23.41-1.19,1.13-.65,1.81-.32.15.08.23.31.46.25.55-.16.83.08.74.61A1.18,1.18,0,0,1,153.18,86c-.62.06-.58-.35-.63-.79,0-.25.11-.58-.2-.77" transform="translate(-33.59 -39.98)"/><path class="cls-4" d="M154.51,84.54c.09-.27.34-.42.51-.28a1.72,1.72,0,0,1,.7,1.24c0,.26-.32.32-.52.2a1.37,1.37,0,0,1-.69-1.16" transform="translate(-33.59 -39.98)"/><path class="cls-4" d="M149.48,83.26c0-.31.15-.45.32-.39.7.23.26,1,.66,1.43.08.09-.17.26-.32.21-.7-.22-.13-1.05-.66-1.25" transform="translate(-33.59 -39.98)"/><path class="cls-4" d="M167.27,69.15c-1.22-.2-1.7-.79-1.58-2,0-.25.06-.52.31-.64s.5,0,.67.22c.58.66,1.52.57,2.18,1.06.14.11.3,0,.43-.07a.51.51,0,0,1,.82.06c.22.3-.08.53-.25.74-.59.72-1.13.85-2.58.61" transform="translate(-33.59 -39.98)"/><path class="cls-4" d="M171.79,69.54c-.45.12-.76.69-1.35.6-.24,0-.51-.37-.35-.55a1.36,1.36,0,0,1,1.42-.49c.17.05.38.1.28.44" transform="translate(-33.59 -39.98)"/><path class="cls-4" d="M169.94,63c.06-.26.15-.5.48-.46s.48.21.38.52-.29.53-.62.47-.28-.29-.24-.53" transform="translate(-33.59 -39.98)"/><path class="cls-4" d="M174.2,77.81a8.87,8.87,0,0,1-1.07-1.36c-.11-.22.27-.27.49-.23a3,3,0,0,0,1.75,0c.19-.09.42.09.53.3s0,.36-.18.48c-.46.36-1.13.17-1.52.76" transform="translate(-33.59 -39.98)"/><path class="cls-4" d="M180.2,76.53s0,.16-.07.16c-.65,0-1.3.26-1.94,0a.23.23,0,0,1-.09-.38,2.55,2.55,0,0,1,2,.05,1.14,1.14,0,0,1,.09.16" transform="translate(-33.59 -39.98)"/><path class="cls-4" d="M179.27,79.93c.25,0,.57,0,.49.34-.14.47-.58.42-1,.35s-.77-.17-.62-.52.73-.14,1.09-.17" transform="translate(-33.59 -39.98)"/><path class="cls-4" d="M176.27,78.88a.9.9,0,0,1-.41-.87c0-.25.18-.4.45-.31.53.19.27.63.3,1,0,.17-.12.28-.34.21" transform="translate(-33.59 -39.98)"/><path class="cls-4" d="M154,69.19l.29,0c.35.06.88-.16,1,.3s-.52.53-.82.77-.83,0-.65.67c0,.15-.24.21-.36.1-.58-.56-1.38-.59-2-.94-.48-.26-1-.59-.37-1.23.08-.08.08-.23.11-.35s-.32-.67.16-.81a.88.88,0,0,1,1,.45c.35.72,1,.78,1.72,1" transform="translate(-33.59 -39.98)"/><path class="cls-4" d="M149.31,71.19l.78,0c.35,0,.62.22.59.61s-.34.31-.58.25-.82.37-.84.18c-.07-.65-.71-.94-.8-1.52a.85.85,0,0,1,.29-.77.5.5,0,0,1,.54,0c.32.19.29.46.17.75-.05.11-.08.23-.15.43" transform="translate(-33.59 -39.98)"/><path class="cls-4" d="M102.22,137.81c-.07.72-.82.85-1.13,1.37-.09.15-.35,0-.46-.17s-.21-.45,0-.58a1.53,1.53,0,0,0,1-1.24A.23.23,0,0,1,102,137c.4.18.14.56.22.81" transform="translate(-33.59 -39.98)"/><path class="cls-4" d="M104,133.49c-.12.27-.06.67-.46.63a.45.45,0,0,1-.39-.62c.07-.32.24-.63.61-.58s.19.38.24.57" transform="translate(-33.59 -39.98)"/><path class="cls-4" d="M110,56.74a4.59,4.59,0,0,1-2.59-1.22c-.22-.23-.13-.44,0-.68a1,1,0,0,1,1-.41.66.66,0,0,1,.61.37c.11.28-.13.28-.32.32s-.49,0-.53.27.27.39.47.52c.39.28,1,.13,1.36.83" transform="translate(-33.59 -39.98)"/><path class="cls-4" d="M107.55,57.9c0,.32-.28.57-.49.41s-.88-.21-.86-.59.54-.48.89-.49.4.39.46.67" transform="translate(-33.59 -39.98)"/><path class="cls-4" d="M106.26,52.46c-.25-.16-.59-.26-.55-.65,0-.22.25-.26.44-.24s.55.19.55.53-.16.38-.44.36" transform="translate(-33.59 -39.98)"/><path class="cls-4" d="M71.49,48.18a.53.53,0,0,1-.39-.45c0-.27-.17-.68.22-.68s.94-.58,1.35.06a.49.49,0,0,1,0,.25,1.65,1.65,0,0,0-1.21.82" transform="translate(-33.59 -39.98)"/><path class="cls-4" d="M69.94,48.89c-.08.37-.17.7-.57.69S68.89,49.3,69,49s.22-.74.63-.71.34.39.32.63" transform="translate(-33.59 -39.98)"/><path class="cls-4" d="M67,46.74c-.58.57-1.24.27-1.89.23A2.32,2.32,0,0,1,67,46.74" transform="translate(-33.59 -39.98)"/><path class="cls-4" d="M120.26,45.85c-.25.38-.54.24-.78,0s-.41-.51-.78-.07-.56,0-.79-.26-.37-.25-.26-.45a.63.63,0,0,1,.74-.29,12.68,12.68,0,0,1,1.68.65.35.35,0,0,1,.19.41" transform="translate(-33.59 -39.98)"/><path class="cls-4" d="M121.63,43.38c.31.14.64.2.58.57s-.34.34-.59.23-.59-.34-.51-.69.38-.06.52-.11" transform="translate(-33.59 -39.98)"/><path class="cls-4" d="M154.41,62c-.37-.11-.31-.49-.47-.6-.35-.27-.43-.77-.87-1-.25-.1-.41-.35-.2-.61a.4.4,0,0,1,.6,0c.27.26.47.69.75,0,.08-.22.39-.11.57,0a2.44,2.44,0,0,1-.11,2,1.29,1.29,0,0,1-.27.13" transform="translate(-33.59 -39.98)"/><path class="cls-4" d="M155.6,61.07c.64,0,1.12,0,1.43.41.1.15-.05.32-.2.36-.57.16-.86-.21-1.23-.77" transform="translate(-33.59 -39.98)"/><path class="cls-4" d="M158.23,59.42a.28.28,0,0,1-.43.22c-.3-.14-.56-.37-.48-.73s.3-.13.48-.1a.48.48,0,0,1,.43.61" transform="translate(-33.59 -39.98)"/><path class="cls-4" d="M152.8,61.59a.45.45,0,0,1-.63.21c-.23-.11-.5-.26-.38-.55s.43-.16.67-.11.41.16.34.45" transform="translate(-33.59 -39.98)"/><path class="cls-5" d="M448.67,264.51V220.76c0-2.36-.85-3.65-3.12-4.24L432,212.88a1.39,1.39,0,0,0-1.8,1.08l-1.14,4.53a1.42,1.42,0,0,0,1,1.78l10.88,2.85c.28.1.28.2.28.4v41a1.42,1.42,0,0,0,1.42,1.47h4.63a1.48,1.48,0,0,0,1.42-1.47M410.37,215a29.29,29.29,0,0,1-16.46,0l-2.37-.79a1.2,1.2,0,0,0-1.7,1l-1,4.24a1.68,1.68,0,0,0,1.23,2.17,34.15,34.15,0,0,0,8.32,1.87v41.09a1.49,1.49,0,0,0,1.42,1.47h4.73a1.41,1.41,0,0,0,1.33-1.47V223.42a33.73,33.73,0,0,0,8.41-1.87,1.66,1.66,0,0,0,1.23-2.17l-1-4.24a1.2,1.2,0,0,0-1.7-1Zm-37,49.56V220.76c0-2.36-.86-3.65-3.13-4.24l-13.52-3.64a1.4,1.4,0,0,0-1.8,1.08l-1.13,4.53a1.42,1.42,0,0,0,.94,1.78l10.88,2.85c.28.1.28.2.28.4v41a1.42,1.42,0,0,0,1.42,1.47H372a1.49,1.49,0,0,0,1.42-1.47m-33.58-13V228.94a14.08,14.08,0,0,0-13.91-14.39H308.22a1.4,1.4,0,0,0-1.42,1.38v4.93a1.49,1.49,0,0,0,1.42,1.48H325.9a6.49,6.49,0,0,1,6.44,6.6V251.5a6.52,6.52,0,0,1-6.44,6.7H306.51a1.48,1.48,0,0,0-1.41,1.48v4.83a1.48,1.48,0,0,0,1.41,1.47H325.9c7.67,0,13.91-6.5,13.91-14.48m-49.56,13V228.94a14.15,14.15,0,0,0-13.91-14.39H256.1a1.4,1.4,0,0,0-1.42,1.38v4.93a1.49,1.49,0,0,0,1.42,1.48h20.24a6.48,6.48,0,0,1,6.43,6.6v35.57A1.41,1.41,0,0,0,284.1,266h4.73a1.49,1.49,0,0,0,1.42-1.47m-49-38.92v-6.11a4.94,4.94,0,0,0-5-4.93H218.93a1.4,1.4,0,0,0-1.42,1.38v4.93a1.49,1.49,0,0,0,1.42,1.48h14.19a.6.6,0,0,1,.66.69c0,9.06.09,11.33-5.77,17.73a1.44,1.44,0,0,0,0,2l3,3a1.37,1.37,0,0,0,2.08.1c7.28-7.69,8.13-13.11,8.13-20.2m-46.53,31.92c0,.49-.19.69-.67.69h-18V222.34h18c.48,0,.67.19.67.59Zm-25.92,6.6a1.82,1.82,0,0,0,1.7,1.87h26.39a5.4,5.4,0,0,0,5.3-5.51v-39a6.72,6.72,0,0,0-6.62-6.9H171.26l-3.69-1.77a1.24,1.24,0,0,0-1.8.59L163.69,218a1.37,1.37,0,0,0,.66,1.87L168.8,222Z" transform="translate(-33.59 -39.98)"/><path class="cls-4" d="M421.2,147.69l-3.83,35.42c-.08.92.4,1.41,1.2,1.41h3.59a1.29,1.29,0,0,0,1.43-1.24l3.68-33.85c10.53-4,13.25-2.82,13.49,1.17l1.51,26.77c0,.34-.15.59-.55.59h-8.55A1.25,1.25,0,0,0,432,179.2v4.08a1.25,1.25,0,0,0,1.19,1.24h11.74a3.88,3.88,0,0,0,3.75-4.4l-1.91-30.94c-.48-7.23-6.47-11.22-20.84-5.65l-4.07-4a1.07,1.07,0,0,0-1.68.08l-2.55,2.83a1.21,1.21,0,0,0,.08,1.83Zm-16.92,35.59v-30a11.87,11.87,0,0,0-11.66-12.14h-18a1.12,1.12,0,0,0-1.12,1.16v4.16a1.2,1.2,0,0,0,1.12,1.25h5.59c-3.67,3.41-5.83,9.31-5.83,15.63a24.86,24.86,0,0,0,5.11,15.38h-5.27A1.26,1.26,0,0,0,373,180v3.33a1.25,1.25,0,0,0,1.2,1.24h9.9a1.9,1.9,0,0,0,1.84-1.91V179.2a27.71,27.71,0,0,1-5.51-16.3c0-6.07,2.23-11.72,6-15.21h6.23a5.46,5.46,0,0,1,5.35,5.57v30a1.25,1.25,0,0,0,1.2,1.24h4a1.19,1.19,0,0,0,1.12-1.24m-75.6,0a1.25,1.25,0,0,0,1.2,1.24h3.91a1.24,1.24,0,0,0,1.19-1.24V147.69h16.69a1.22,1.22,0,0,1,1.28,1.24v34.35a1.18,1.18,0,0,0,1.11,1.24h4a1.25,1.25,0,0,0,1.19-1.24v-34.1a7.92,7.92,0,0,0-7.82-8.06H330.11a1.54,1.54,0,0,0-1.43,1.58Zm-14.53,0V179.2A1.19,1.19,0,0,0,313,178h-4v-24.7a11.87,11.87,0,0,0-11.66-12.14H286.77a1.18,1.18,0,0,0-1.2,1.16v4.16a1.26,1.26,0,0,0,1.2,1.25H297.3a5.46,5.46,0,0,1,5.35,5.57V178H284.21A1.19,1.19,0,0,0,283,179.2v4.08a1.24,1.24,0,0,0,1.19,1.24H313a1.25,1.25,0,0,0,1.2-1.24m-43.67,0v-30a11.93,11.93,0,0,0-11.73-12.14H241.66a1.18,1.18,0,0,0-1.19,1.16v4.16a1.26,1.26,0,0,0,1.19,1.25h17.09a5.48,5.48,0,0,1,5.43,5.57v30a1.18,1.18,0,0,0,1.11,1.24h4a1.25,1.25,0,0,0,1.2-1.24m-41.35-32.85v-5.16a4.16,4.16,0,0,0-4.23-4.15H210.29a1.18,1.18,0,0,0-1.2,1.16v4.16a1.26,1.26,0,0,0,1.2,1.25h12a.51.51,0,0,1,.56.58c0,7.65.08,9.56-4.87,15a1.22,1.22,0,0,0,0,1.66l2.56,2.49c.64.59,1.28.59,1.75.09,6.15-6.49,6.87-11.06,6.87-17m-39.28,26.94c0,.42-.16.59-.55.59H174.13V147.69H189.3c.39,0,.55.16.55.5ZM168,182.94a1.53,1.53,0,0,0,1.44,1.58h22.27a4.55,4.55,0,0,0,4.47-4.65V146.94a5.67,5.67,0,0,0-5.59-5.82H170.06l-3.12-1.5a1,1,0,0,0-1.51.5L163.67,144a1.15,1.15,0,0,0,.56,1.58l3.75,1.83Z" transform="translate(-33.59 -39.98)"/></g><line class="cls-6" x1="209.46" y1="65.49" x2="469" y2="65.49"/><line class="cls-7" x1="56.51" y1="258.14" x2="336.83" y2="258.14"/></g></g></svg>
