<?xml version="1.0" encoding="utf-8"?>
<!-- Generator: Adobe Illustrator 24.0.3, SVG Export Plug-In . SVG Version: 6.00 Build 0)  -->
<svg version="1.1" id="Layer_1" xmlns="http://www.w3.org/2000/svg" xmlns:xlink="http://www.w3.org/1999/xlink" x="0px" y="0px"
	 viewBox="0 0 369.74 369.73" style="enable-background:new 0 0 369.74 369.73;" xml:space="preserve">
<title>006 - Home Insurance</title>
<desc>Created with Sketch.</desc>
<g id="Page-1">
	<g id="_x30_06---Home-Insurance">
		<path fill="#00A199" id="Shape_4_" d="M6.02,205.53c3.69,1.82,8.1,1.4,11.39-1.09l15.22-11.42v154.96c0,12.01,9.74,21.75,21.75,21.75h260.99
			c12.01,0,21.75-9.74,21.75-21.75V193.02l15.22,11.42c3.3,2.47,7.7,2.87,11.39,1.03c3.68-1.84,6.01-5.61,6.01-9.73v-54.37
			c0-3.42-1.61-6.65-4.35-8.7l-174-130.5c-3.87-2.9-9.18-2.9-13.05,0L97.87,62.53V43.5c0-12.01-9.74-21.75-21.75-21.75H54.37
			c-12.01,0-21.75,9.74-21.75,21.75v67.97L4.35,132.68c-2.74,2.05-4.35,5.28-4.35,8.7v54.37C-0.02,199.88,2.31,203.68,6.02,205.53z
			 M136.37,352.98v-92c0-24.02,24.47-48.5,48.5-48.5s48.5,24.47,48.5,48.5v92H136.37z M320.36,352.98h-70.25v-92
			c0-36.03-29.21-65.25-65.25-65.25s-65.25,29.21-65.25,65.25v92H49.36V176.71l135.51-97.87l135.49,97.87V352.98z M49.38,40.5h31.75
			v35.34L49.38,96.15C49.38,96.15,49.38,40.5,49.38,40.5z M15.75,146.81L184.87,19.47l170.12,127.34V184L191.39,61.55
			c-3.87-2.9-9.18-2.9-13.05,0L15.75,183.99V146.81z"/>
	</g>
</g>
</svg>
