<?xml version="1.0" encoding="utf-8"?>
<!-- Generator: Adobe Illustrator 24.0.3, SVG Export Plug-In . SVG Version: 6.00 Build 0)  -->
<svg version="1.1" id="Layer_1" xmlns="http://www.w3.org/2000/svg" xmlns:xlink="http://www.w3.org/1999/xlink" x="0px" y="0px"
	 viewBox="0 0 512 512" style="enable-background:new 0 0 512 512;" xml:space="preserve">
<title>006 - Home Insurance</title>
<desc>Created with Sketch.</desc>
<g id="Page-1">
	<g id="_x30_06---Home-Insurance">
		<path fill="#00A199" id="Shape_4_" d="M77.15,242.53c3.69,1.82,8.1,1.4,11.39-1.09l15.22-11.42v154.96c0,12.01,9.74,21.75,21.75,21.75H386.5
			c12.01,0,21.75-9.74,21.75-21.75V230.02l15.22,11.42c3.3,2.47,7.7,2.87,11.39,1.03c3.68-1.84,6.01-5.61,6.01-9.73v-54.37
			c0-3.42-1.61-6.65-4.35-8.7l-174-130.5c-3.87-2.9-9.18-2.9-13.05,0L169,99.53V80.5c0-12.01-9.74-21.75-21.75-21.75H125.5
			c-12.01,0-21.75,9.74-21.75,21.75v67.97l-28.27,21.21c-2.74,2.05-4.35,5.28-4.35,8.7v54.37
			C71.11,236.88,73.44,240.68,77.15,242.53z M207.5,389.98v-92c0-24.02,24.47-48.5,48.5-48.5s48.5,24.47,48.5,48.5v92H207.5z
			 M391.49,389.98h-70.25v-92c0-36.03-29.21-65.25-65.25-65.25s-65.25,29.21-65.25,65.25v92h-70.25V213.71L256,115.84l135.49,97.87
			V389.98z M120.51,77.5h31.75v35.34l-31.75,20.31C120.51,133.15,120.51,77.5,120.51,77.5z M86.88,183.81L256,56.47l170.12,127.34
			V221L262.52,98.55c-3.87-2.9-9.18-2.9-13.05,0L86.88,220.99V183.81z"/>
	</g>
</g>
</svg>
