<svg xmlns="http://www.w3.org/2000/svg" id="Layer_1" data-name="Layer 1" viewBox="0 0 186 83">
   <defs>
      <style>.cls-1{fill:#0e50aa;}.cls-2{fill:#ff3366;}</style>
   </defs>
   <path class="cls-1" d="M112.09,44.45a6.36,6.36,0,0,1,.55-2.54,7.83,7.83,0,0,1,1.54-2.32,7.65,7.65,0,0,1,5.59-2.35,8.07,8.07,0,0,1,3.11.55,6.25,6.25,0,0,1,2.22,1.51,6.45,6.45,0,0,1,1.33,2.27,10,10,0,0,1,.49,2.88Zm19.85,3.76V46.54a17.2,17.2,0,0,0-.66-4.73,11.87,11.87,0,0,0-2.11-4.18,10.89,10.89,0,0,0-3.74-3,12.13,12.13,0,0,0-5.56-1.15,13.09,13.09,0,0,0-5.12,1,12.25,12.25,0,0,0-4,2.74A12.72,12.72,0,0,0,108,41.34a13.59,13.59,0,0,0-1,5.14,14.66,14.66,0,0,0,.88,5.15,12.21,12.21,0,0,0,2.54,4.12,11.5,11.5,0,0,0,4,2.75,13.64,13.64,0,0,0,5.3,1q7.05,0,11-5.07l-3.55-2.71a12.47,12.47,0,0,1-3,2.69,7.08,7.08,0,0,1-3.81,1,9.53,9.53,0,0,1-3.14-.52,8.57,8.57,0,0,1-2.66-1.46,7.28,7.28,0,0,1-1.85-2.27,6.21,6.21,0,0,1-.71-2.95ZM89.53,58.86H94.7l9.71-24.76h-5l-7.1,19-7.42-19H79.45ZM70.18,27.65a3.32,3.32,0,0,0,2.43,1,3.48,3.48,0,0,0,3.44-3.44,3.32,3.32,0,0,0-1-2.43,3.28,3.28,0,0,0-2.42-1,3.48,3.48,0,0,0-3.45,3.45,3.28,3.28,0,0,0,1,2.42m.08,31.21H75V34.1h-4.7ZM48.74,38.18v4.7h8.2V53.17a14.14,14.14,0,0,1-4,1.43,24.07,24.07,0,0,1-5,.5A14.2,14.2,0,0,1,42.16,54a14,14,0,0,1-4.55-3.11,14.37,14.37,0,0,1-3-4.67,15.35,15.35,0,0,1-1.09-5.83,16.46,16.46,0,0,1,1-5.72A13.87,13.87,0,0,1,37.3,30a13.48,13.48,0,0,1,10.13-4.34,16.62,16.62,0,0,1,5.38.87,13.05,13.05,0,0,1,4.86,3l3.55-3.81a15.39,15.39,0,0,0-5.43-3.53,23.14,23.14,0,0,0-8.36-1.28,20,20,0,0,0-7.78,1.49,18.12,18.12,0,0,0-6.09,4.1,19,19,0,0,0-4,6.16,20.26,20.26,0,0,0-1.44,7.68,20.83,20.83,0,0,0,1.33,7.44A18,18,0,0,0,39.57,58.23,21.15,21.15,0,0,0,48,59.8a32.72,32.72,0,0,0,3.58-.21,29.54,29.54,0,0,0,3.76-.65,33.09,33.09,0,0,0,3.58-1.07A17.26,17.26,0,0,0,62,56.41V38.18ZM16.83,46.69a22.34,22.34,0,0,1-.21,3.08,7.94,7.94,0,0,1-.84,2.69A5.1,5.1,0,0,1,14,54.37a5.42,5.42,0,0,1-3,.73,4.82,4.82,0,0,1-3.4-1.2,5.91,5.91,0,0,1-1.72-3.29L1,51.71a9.3,9.3,0,0,0,3.42,6.08,10.73,10.73,0,0,0,6.61,2,13.7,13.7,0,0,0,3.45-.49A10,10,0,0,0,18,57.53,9.8,9.8,0,0,0,20.74,54a13,13,0,0,0,1.1-5.72V21.88h-5Z" />
   <path class="cls-2" d="M161.91,37.55c-1.45-3.59-5.29-7.8-9.59-8.26-7.69-.82-13.19,8.14-9.09,15a13.94,13.94,0,0,0,1.31,1.36c6.44,5.83,18.22,5.76,26.07,3.26,2.14-.68,4.48-.44,3.93,2.43l0,0c1.4-1.28,2.83-2.64,4.15-4.07C199.22,25,169,15,161.91,37.55" />
   <path class="cls-1" d="M177,51.48a19.25,19.25,0,0,1-15.27,6.12c3.26-2.23,9.25-2.39,10.74-6,.62-1.51,0-1.37-1.31-1-12.87,4.11-33.64,1.68-33-17.06-5.55,15,8.86,29.21,23.64,29.21,10.16,0,15.86-4.35,20.14-10.84,2.78-4.23-1.33-4.38-4.9-.5" />
</svg>
