<svg xmlns="http://www.w3.org/2000/svg" xmlns:xlink="http://www.w3.org/1999/xlink" version="1.1" style="enable-background:new 0 0 149 158;" xml:space="preserve" width="149" height="158"><rect id="backgroundrect" width="100%" height="100%" x="0" y="0" fill="none" stroke="none"/>



<g class="currentLayer" style=""><title>Layer 1</title><path d="M48.4,129.14c8.26,2.69,16.43,5.36,24.84,8.1c0-2.14,0-4.06,0-5.98c0-4.04,0-8.09,0-12.13c0-1.97,0.86-3.01,2.44-3.02  c1.59,0,2.46,1.04,2.46,3c0.01,5.43,0,10.85,0,16.28c0,0.56,0,1.11,0,1.86c8.34-2.72,16.52-5.38,24.83-8.09  c-0.75-4.15-1.47-8.25-2.22-12.35c-1.26-6.93-2.55-13.85-3.81-20.78c-0.3-1.67,0.43-2.96,1.78-3.26c1.59-0.35,2.75,0.45,3.1,2.33  c1.64,8.83,3.24,17.67,4.86,26.5c0.4,2.16,0.79,4.32,1.24,6.46c0.08,0.35,0.43,0.83,0.75,0.93c8.79,2.62,17.58,5.19,26.7,7.87  c-0.2-0.71-0.29-1.17-0.45-1.6c-5.42-14.91-10.84-29.81-16.31-44.7c-0.23-0.62-0.86-1.26-1.46-1.53c-2.65-1.19-5.36-2.24-8.05-3.36  c-1.78-0.74-2.48-2.03-1.9-3.43c0.61-1.47,1.92-1.92,3.73-1.2c3.37,1.33,6.75,2.63,10.06,4.1c0.72,0.32,1.41,1.2,1.7,1.97  c6.38,17.39,12.71,34.79,18.98,52.22c0.31,0.86,0.14,2.14-0.29,2.96c-0.6,1.13-1.87,0.99-3.02,0.65  c-10.28-3.01-20.55-6.04-30.84-8.98c-1-0.29-2.24-0.25-3.24,0.07c-9.18,2.93-18.32,5.96-27.5,8.91c-0.71,0.23-1.64,0.16-2.37-0.08  c-9.23-2.96-18.43-5.99-27.66-8.94c-0.76-0.24-1.72-0.25-2.5-0.02c-10.44,2.99-20.86,6.03-31.28,9.06  c-1.09,0.32-2.11,0.36-2.98-0.54c-0.87-0.9-0.79-1.93-0.4-2.99c6.36-17.49,12.72-34.99,19.14-52.47c0.28-0.75,1.06-1.53,1.8-1.86  c3.22-1.43,6.5-2.7,9.76-4.02c1.91-0.77,3.24-0.37,3.87,1.15c0.57,1.39-0.13,2.69-1.91,3.44c-2.68,1.13-5.39,2.18-8.05,3.35  c-0.57,0.25-1.21,0.82-1.42,1.38c-5.51,15.04-10.97,30.1-16.43,45.16c-0.11,0.31-0.18,0.65-0.33,1.24c2.06-0.59,3.91-1.1,5.74-1.64  c6.76-1.96,13.51-3.94,20.28-5.86c0.95-0.27,1.37-0.7,1.55-1.71c1.86-10.45,3.78-20.89,5.68-31.33c0.08-0.45,0.17-0.9,0.27-1.35  c0.39-1.66,1.44-2.42,2.96-2.16c1.39,0.24,2.21,1.51,1.93,3.16c-0.4,2.42-0.9,4.82-1.34,7.23C51.56,111.78,49.99,120.41,48.4,129.14  z" id="svg_1" class="selected" fill="#b6b6b6" fill-opacity="1"/><path d="M75.7,10.46c18.78,0,35.52,14.15,38.72,32.57c1.74,10.02-0.7,19.14-5.55,27.8c-4.16,7.42-9.8,13.71-15.44,20  c-5.47,6.09-10.99,12.14-15.49,19.02c-1.17,1.79-3.17,1.94-4.31,0.23c-6.41-9.64-14.69-17.7-22.02-26.56  C46.37,77.2,41.53,70.64,38.72,62.8c-7.79-21.73,4.94-43.31,24.22-50.16C67.06,11.18,71.3,10.38,75.7,10.46z M75.81,104  c0.04-0.04,0.16-0.12,0.25-0.23c4.71-5.59,9.35-11.24,14.14-16.76c4.96-5.72,10.06-11.33,13.88-17.92  c4.48-7.75,7.02-15.9,5.45-25.03c-3.16-18.43-21.07-31.2-39.51-28.12C51.71,18.99,36.77,38.18,42.7,58.84  c2,6.98,5.76,12.97,10.32,18.45C60.48,86.25,68.14,95.04,75.81,104z" id="svg_2" class="selected" fill="#b6b6b6" fill-opacity="1"/><path d="M75.82,25.2c13.3-0.13,24.82,11.34,24.49,25.45c-0.29,12.8-11.6,23.75-24.73,23.71c-13.95-0.04-24.81-11.81-24.51-25.62  C51.36,36.16,62.78,25.11,75.82,25.2z M75.82,30.12c-10.61-0.05-19.74,9-19.77,19.58c-0.03,10.63,8.91,19.69,19.45,19.7  c10.83,0.02,19.75-8.81,19.84-19.64C95.43,39.28,86.39,30.17,75.82,30.12z" id="svg_3" class="selected" fill="#b6b6b6" fill-opacity="1"/></g></svg>