<?xml version="1.0" encoding="utf-8"?>
<!-- Generator: Adobe Illustrator 24.0.3, SVG Export Plug-In . SVG Version: 6.00 Build 0)  -->
<svg version="1.1" id="Capa_1" xmlns="http://www.w3.org/2000/svg" xmlns:xlink="http://www.w3.org/1999/xlink" x="0px" y="0px"
	 viewBox="0 0 512 512" style="enable-background:new 0 0 512 512;" xml:space="preserve" fill="#00A199">
<g>
	<g>
		<path d="M429.51,177.63V91.82h-83.82L256,0l-89.69,91.82H82.49v85.82l-43.96,45.01V512h434.94V222.64L429.51,177.63z M256,36.89
			l53.79,54.92H202.21L256,36.89z M107.46,116.79h297.07v128.87L256,383.67L107.46,245.66V116.79z M449.49,490.03H64.5l-1-255.18
			l18.99-19.32v37.89L256,420.25l173.51-166.84v-38.89l19.99,14.32v253.18L449.49,490.03z"/>
	</g>
</g>
<g>
	<g>
		<rect x="218.7" y="171.65" width="74.6" height="24.97"/>
	</g>
</g>
<g>
	<g>
		<rect x="170.74" y="219.93" width="170.51" height="24.97"/>
	</g>
</g>
</svg>
