<svg xmlns="http://www.w3.org/2000/svg" xmlns:xlink="http://www.w3.org/1999/xlink" version="1.1" style="" xml:space="preserve" width="512" height="512"><rect id="backgroundrect" width="100%" height="100%" x="0" y="0" fill="none" stroke="none"/>

<g class="currentLayer" style=""><title>Layer 1</title><g id="svg_1" class="selected" fill="#ffffff" fill-opacity="1">
	<g id="svg_2" fill="#ffffff" fill-opacity="1">
		<path d="M467,61H45C20.22,61,0,81.2,0,106v300c0,24.72,20.13,45,45,45h422c24.72,0,45-20.13,45-45V106C512,81.28,491.87,61,467,61    z M460.79,91L256.95,294.83L51.36,91H460.79z M30,399.79V112.07l144.48,143.24L30,399.79z M51.21,421l144.57-144.57l50.66,50.22    c5.86,5.81,15.33,5.8,21.17-0.05L317,277.21L460.79,421H51.21z M482,399.79L338.21,256L482,112.21V399.79z" id="svg_3" fill="#ffffff" fill-opacity="1"/>
	</g>
</g></g></svg>